<svg id="svg" version="1.1" xmlns="http://www.w3.org/2000/svg" xmlns:xlink="http://www.w3.org/1999/xlink" width="400" height="400" viewBox="0, 0, 400,400"><g id="svgg"><path id="path0" d="M198.900 0.267 C 197.965 0.366,197.200 0.616,197.200 0.823 C 197.200 1.030,196.480 1.200,195.600 1.200 C 194.720 1.200,194.000 1.380,194.000 1.600 C 194.000 1.820,193.550 2.000,193.000 2.000 C 192.450 2.000,192.000 2.180,192.000 2.400 C 192.000 2.620,191.460 2.800,190.800 2.800 C 190.140 2.800,189.600 2.980,189.600 3.200 C 189.600 3.420,189.060 3.600,188.400 3.600 C 187.740 3.600,187.200 3.780,187.200 4.000 C 187.200 4.220,186.660 4.400,186.000 4.400 C 185.340 4.400,184.800 4.580,184.800 4.800 C 184.800 5.020,184.260 5.200,183.600 5.200 C 182.940 5.200,182.400 5.380,182.400 5.600 C 182.400 5.820,182.040 6.000,181.600 6.000 C 181.160 6.000,180.800 6.180,180.800 6.400 C 180.800 6.620,180.249 6.800,179.576 6.800 C 178.863 6.800,178.456 6.967,178.600 7.200 C 178.740 7.427,178.404 7.600,177.824 7.600 C 177.261 7.600,176.800 7.780,176.800 8.000 C 176.800 8.220,176.350 8.400,175.800 8.400 C 175.250 8.400,174.800 8.591,174.800 8.824 C 174.800 9.057,174.664 9.163,174.498 9.060 C 174.331 8.958,173.489 9.217,172.626 9.637 C 171.763 10.057,170.834 10.400,170.562 10.400 C 170.290 10.400,170.007 10.535,169.933 10.700 C 169.741 11.132,166.428 12.800,165.762 12.800 C 165.453 12.800,165.200 12.980,165.200 13.200 C 165.200 13.420,164.840 13.600,164.400 13.600 C 163.960 13.600,163.600 13.780,163.600 14.000 C 163.600 14.220,163.240 14.400,162.800 14.400 C 162.360 14.400,162.000 14.580,162.000 14.800 C 162.000 15.020,161.813 15.200,161.584 15.200 C 161.110 15.200,158.669 16.845,158.467 17.300 C 158.393 17.465,157.988 17.600,157.567 17.600 C 157.145 17.600,156.800 17.758,156.800 17.951 C 156.800 18.145,156.260 18.527,155.600 18.800 C 154.940 19.073,154.400 19.455,154.400 19.649 C 154.400 19.842,154.080 20.000,153.688 20.000 C 153.297 20.000,152.717 20.360,152.400 20.800 C 152.083 21.240,151.493 21.600,151.088 21.600 C 150.684 21.600,150.464 21.780,150.600 22.000 C 150.736 22.220,150.567 22.400,150.224 22.400 C 149.881 22.400,149.600 22.580,149.600 22.800 C 149.600 23.020,149.229 23.200,148.776 23.200 C 148.323 23.200,148.064 23.380,148.200 23.600 C 148.336 23.820,148.167 24.000,147.824 24.000 C 147.481 24.000,147.200 24.180,147.200 24.400 C 147.200 24.620,146.956 24.800,146.658 24.800 C 146.361 24.800,145.596 25.291,144.958 25.891 C 144.321 26.491,143.658 26.986,143.485 26.991 C 143.312 26.996,143.000 27.270,142.792 27.600 C 142.583 27.930,142.409 28.046,142.406 27.858 C 142.403 27.669,141.878 28.074,141.240 28.758 C 140.601 29.441,139.881 30.000,139.640 30.000 C 139.398 30.000,139.200 30.180,139.200 30.400 C 139.200 30.620,139.029 30.800,138.819 30.800 C 138.610 30.800,137.575 31.659,136.519 32.709 C 135.464 33.759,133.970 35.062,133.200 35.604 C 131.881 36.532,128.200 40.000,128.533 40.000 C 128.618 40.000,127.948 40.786,127.044 41.747 C 124.552 44.395,121.445 48.009,121.028 48.744 C 120.824 49.105,120.149 49.877,119.528 50.460 C 118.908 51.044,118.400 51.794,118.400 52.127 C 118.400 52.461,118.175 52.814,117.900 52.912 C 116.368 53.459,124.702 53.535,199.876 53.653 C 272.796 53.768,284.209 53.665,282.100 52.912 C 281.825 52.814,281.600 52.461,281.600 52.127 C 281.600 51.794,281.060 51.017,280.400 50.400 C 279.740 49.783,279.200 49.070,279.200 48.814 C 279.200 48.558,278.300 47.471,277.200 46.400 C 276.100 45.329,275.200 44.352,275.200 44.229 C 275.200 43.932,273.821 42.337,271.486 39.936 C 269.048 37.428,269.243 37.200,273.824 37.200 C 276.075 37.200,277.600 37.038,277.600 36.800 C 277.600 36.571,278.800 36.400,280.400 36.400 C 282.000 36.400,283.200 36.229,283.200 36.000 C 283.200 35.780,284.100 35.600,285.200 35.600 C 286.300 35.600,287.200 35.420,287.200 35.200 C 287.200 34.980,288.089 34.800,289.176 34.800 C 290.263 34.800,291.264 34.620,291.400 34.400 C 291.536 34.180,292.357 34.000,293.224 34.000 C 294.091 34.000,294.800 33.820,294.800 33.600 C 294.800 33.380,295.520 33.200,296.400 33.200 C 297.280 33.200,298.000 33.020,298.000 32.800 C 298.000 32.580,298.434 32.400,298.964 32.400 C 299.904 32.400,299.933 32.301,300.159 28.300 C 300.286 26.045,300.438 23.390,300.495 22.400 C 300.585 20.864,300.468 20.542,299.700 20.205 C 299.205 19.988,298.800 19.673,298.800 19.505 C 298.800 19.337,298.440 19.200,298.000 19.200 C 297.560 19.200,297.200 19.020,297.200 18.800 C 297.200 18.580,296.840 18.400,296.400 18.400 C 295.960 18.400,295.600 18.220,295.600 18.000 C 295.600 17.780,295.240 17.600,294.800 17.600 C 294.360 17.600,294.000 17.420,294.000 17.200 C 294.000 16.980,293.748 16.800,293.441 16.800 C 293.133 16.800,291.855 16.260,290.600 15.600 C 289.345 14.940,288.067 14.400,287.759 14.400 C 287.452 14.400,287.200 14.220,287.200 14.000 C 287.200 13.780,286.840 13.600,286.400 13.600 C 285.960 13.600,285.600 13.420,285.600 13.200 C 285.600 12.980,285.060 12.800,284.400 12.800 C 283.740 12.800,283.200 12.620,283.200 12.400 C 283.200 12.180,282.840 12.000,282.400 12.000 C 281.960 12.000,281.600 11.820,281.600 11.600 C 281.600 11.380,281.060 11.200,280.400 11.200 C 279.740 11.200,279.200 11.059,279.200 10.887 C 279.200 10.715,278.345 10.329,277.300 10.029 C 276.255 9.729,275.220 9.380,275.000 9.253 C 274.512 8.972,273.803 8.793,272.100 8.520 C 271.385 8.406,270.800 8.152,270.800 7.956 C 270.800 7.760,270.159 7.600,269.376 7.600 C 268.529 7.600,268.053 7.438,268.200 7.200 C 268.347 6.962,267.879 6.800,267.047 6.800 C 266.277 6.800,265.536 6.620,265.400 6.400 C 265.264 6.180,264.634 6.000,264.000 6.000 C 263.366 6.000,262.736 5.820,262.600 5.600 C 262.464 5.380,261.733 5.200,260.976 5.200 C 260.219 5.200,259.600 5.020,259.600 4.800 C 259.600 4.580,258.981 4.400,258.224 4.400 C 257.467 4.400,256.736 4.220,256.600 4.000 C 256.464 3.780,255.553 3.600,254.576 3.600 C 253.599 3.600,252.800 3.420,252.800 3.200 C 252.800 2.980,251.900 2.800,250.800 2.800 C 249.700 2.800,248.800 2.637,248.800 2.437 C 248.800 2.088,247.159 1.840,241.600 1.352 C 240.170 1.226,238.879 0.927,238.730 0.687 C 238.460 0.250,202.652 -0.127,198.900 0.267 M93.200 185.889 C 92.650 186.439,90.535 188.475,88.500 190.414 C 86.465 192.353,84.800 194.042,84.800 194.167 C 84.800 194.292,83.720 195.492,82.400 196.832 C 81.080 198.173,80.000 199.460,80.000 199.692 C 80.000 199.924,79.505 200.588,78.900 201.168 C 78.295 201.748,77.579 202.712,77.309 203.311 C 77.038 203.910,76.623 204.400,76.385 204.400 C 76.147 204.400,76.064 204.580,76.200 204.800 C 76.336 205.020,76.257 205.200,76.024 205.200 C 75.791 205.200,75.600 205.470,75.600 205.800 C 75.600 206.130,75.420 206.400,75.200 206.400 C 74.980 206.400,74.800 206.630,74.800 206.912 C 74.800 207.193,74.440 207.683,74.000 208.000 C 73.560 208.317,73.200 208.907,73.200 209.312 C 73.200 209.716,73.020 209.936,72.800 209.800 C 72.580 209.664,72.400 209.833,72.400 210.176 C 72.400 210.519,72.264 210.800,72.098 210.800 C 71.931 210.800,71.571 211.306,71.297 211.925 C 71.024 212.544,70.440 213.436,70.000 213.908 C 69.560 214.380,69.200 214.962,69.200 215.200 C 69.200 215.438,68.840 216.020,68.400 216.492 C 67.960 216.964,67.600 217.587,67.600 217.875 C 67.600 218.164,67.420 218.400,67.200 218.400 C 66.980 218.400,66.800 218.760,66.800 219.200 C 66.800 219.640,66.620 220.000,66.400 220.000 C 66.180 220.000,66.000 220.360,66.000 220.800 C 66.000 221.240,65.820 221.600,65.600 221.600 C 65.380 221.600,65.200 221.868,65.200 222.195 C 65.200 222.523,64.929 223.108,64.598 223.495 C 64.267 223.883,63.322 225.640,62.498 227.400 C 61.674 229.160,60.865 230.660,60.700 230.733 C 60.535 230.807,60.400 231.129,60.400 231.449 C 60.400 231.770,60.048 232.722,59.617 233.566 C 59.187 234.410,58.947 235.213,59.084 235.350 C 59.221 235.488,59.123 235.600,58.867 235.600 C 58.610 235.600,58.400 236.140,58.400 236.800 C 58.400 237.460,58.220 238.000,58.000 238.000 C 57.780 238.000,57.600 238.360,57.600 238.800 C 57.600 239.240,57.420 239.600,57.200 239.600 C 56.980 239.600,56.800 240.140,56.800 240.800 C 56.800 241.460,56.620 242.000,56.400 242.000 C 56.180 242.000,56.000 242.362,56.000 242.805 C 56.000 243.248,55.820 243.968,55.600 244.405 C 55.380 244.842,55.020 245.558,54.800 245.995 C 54.580 246.432,54.400 247.141,54.400 247.571 C 54.400 248.001,54.220 248.464,54.000 248.600 C 53.780 248.736,53.600 249.377,53.600 250.024 C 53.600 250.671,53.420 251.200,53.200 251.200 C 52.980 251.200,52.800 251.729,52.800 252.376 C 52.800 253.023,52.620 253.664,52.400 253.800 C 52.180 253.936,52.000 254.566,52.000 255.200 C 52.000 255.834,51.820 256.464,51.600 256.600 C 51.380 256.736,51.200 257.366,51.200 258.000 C 51.200 258.634,51.020 259.264,50.800 259.400 C 50.580 259.536,50.400 260.346,50.400 261.200 C 50.400 262.054,50.220 262.864,50.000 263.000 C 49.780 263.136,49.600 263.867,49.600 264.624 C 49.600 265.381,49.420 266.000,49.200 266.000 C 48.980 266.000,48.800 266.889,48.800 267.976 C 48.800 269.063,48.620 270.064,48.400 270.200 C 47.366 270.839,47.991 272.311,49.400 272.556 C 50.170 272.690,51.432 272.910,52.204 273.044 C 52.976 273.179,53.706 273.449,53.827 273.644 C 53.948 273.840,54.566 274.000,55.200 274.000 C 55.834 274.000,56.464 274.180,56.600 274.400 C 56.736 274.620,57.366 274.800,58.000 274.800 C 58.634 274.800,59.264 274.980,59.400 275.200 C 59.536 275.420,60.166 275.600,60.800 275.600 C 61.434 275.600,62.064 275.780,62.200 276.000 C 62.336 276.220,62.966 276.400,63.600 276.400 C 64.234 276.400,64.864 276.580,65.000 276.800 C 65.136 277.020,65.676 277.200,66.200 277.200 C 66.724 277.200,67.264 277.380,67.400 277.600 C 67.536 277.820,68.166 278.000,68.800 278.000 C 69.434 278.000,70.064 278.180,70.200 278.400 C 70.336 278.620,70.966 278.800,71.600 278.800 C 72.234 278.800,72.864 278.980,73.000 279.200 C 73.136 279.420,73.678 279.600,74.205 279.600 C 74.731 279.600,75.576 279.761,76.081 279.958 C 76.895 280.276,77.706 280.511,81.056 281.399 C 82.000 281.649,82.800 280.097,82.800 278.017 C 82.800 276.731,83.841 275.202,84.292 275.825 C 86.882 279.406,121.200 300.000,124.577 300.000 C 124.704 300.000,125.572 300.337,126.504 300.748 C 133.489 303.831,138.504 305.658,146.800 308.142 C 167.249 314.264,193.882 317.053,214.200 315.201 C 223.297 314.372,227.460 313.930,229.400 313.588 C 230.500 313.394,232.570 313.035,234.000 312.791 C 235.430 312.546,237.365 312.179,238.300 311.973 C 244.856 310.534,247.221 309.980,248.400 309.608 C 248.950 309.435,250.120 309.096,251.000 308.856 C 256.201 307.438,266.671 303.889,269.400 302.620 C 270.060 302.314,271.575 301.679,272.768 301.210 C 282.674 297.317,306.899 283.756,309.200 280.817 C 309.310 280.676,310.030 280.129,310.800 279.600 C 311.570 279.071,312.290 278.540,312.400 278.419 C 314.968 275.604,317.004 275.212,317.332 277.470 C 317.985 281.963,317.563 281.693,322.000 280.454 C 322.770 280.239,324.570 279.770,326.000 279.412 C 327.430 279.053,328.913 278.589,329.295 278.380 C 329.677 278.171,330.431 278.000,330.971 278.000 C 331.511 278.000,332.064 277.820,332.200 277.600 C 332.336 277.380,332.979 277.200,333.629 277.200 C 334.279 277.200,335.123 277.036,335.505 276.835 C 335.887 276.635,337.280 276.246,338.600 275.971 C 339.920 275.696,341.171 275.320,341.380 275.136 C 341.589 274.951,342.098 274.800,342.511 274.800 C 345.393 274.800,351.999 272.215,351.915 271.120 C 351.868 270.504,351.688 270.000,351.515 270.000 C 351.342 270.000,351.200 269.100,351.200 268.000 C 351.200 266.900,351.020 266.000,350.800 266.000 C 350.580 266.000,350.400 265.381,350.400 264.624 C 350.400 263.867,350.220 263.136,350.000 263.000 C 349.780 262.864,349.600 261.953,349.600 260.976 C 349.600 259.999,349.420 259.200,349.200 259.200 C 348.980 259.200,348.800 258.660,348.800 258.000 C 348.800 257.340,348.620 256.800,348.400 256.800 C 348.180 256.800,348.000 256.080,348.000 255.200 C 348.000 254.320,347.820 253.600,347.600 253.600 C 347.380 253.600,347.200 253.060,347.200 252.400 C 347.200 251.740,347.020 251.200,346.800 251.200 C 346.580 251.200,346.400 250.671,346.400 250.024 C 346.400 249.377,346.220 248.736,346.000 248.600 C 345.780 248.464,345.600 247.924,345.600 247.400 C 345.600 246.876,345.420 246.336,345.200 246.200 C 344.980 246.064,344.800 245.513,344.800 244.976 C 344.800 244.439,344.620 244.000,344.400 244.000 C 344.180 244.000,344.000 243.550,344.000 243.000 C 344.000 242.450,343.820 242.000,343.600 242.000 C 343.380 242.000,343.200 241.460,343.200 240.800 C 343.200 240.140,343.020 239.600,342.800 239.600 C 342.580 239.600,342.400 239.240,342.400 238.800 C 342.400 238.360,342.220 238.000,342.000 238.000 C 341.780 238.000,341.600 237.563,341.600 237.029 C 341.600 236.195,339.592 231.235,338.391 229.105 C 338.176 228.723,338.000 228.138,338.000 227.805 C 338.000 227.472,337.820 227.200,337.600 227.200 C 337.380 227.200,337.200 226.840,337.200 226.400 C 337.200 225.960,337.020 225.600,336.800 225.600 C 336.580 225.600,336.400 225.280,336.400 224.888 C 336.400 224.497,336.040 223.917,335.600 223.600 C 335.160 223.283,334.800 222.703,334.800 222.312 C 334.800 221.920,334.620 221.600,334.400 221.600 C 334.180 221.600,334.000 221.240,334.000 220.800 C 334.000 220.360,333.820 220.000,333.600 220.000 C 333.380 220.000,333.200 219.640,333.200 219.200 C 333.200 218.760,333.020 218.400,332.800 218.400 C 332.580 218.400,332.400 218.080,332.400 217.688 C 332.400 217.297,332.040 216.717,331.600 216.400 C 331.160 216.083,330.800 215.503,330.800 215.112 C 330.800 214.720,330.620 214.400,330.400 214.400 C 330.180 214.400,330.000 214.130,330.000 213.800 C 330.000 213.470,329.820 213.200,329.600 213.200 C 329.380 213.200,329.200 212.930,329.200 212.600 C 329.200 212.270,329.020 212.000,328.800 212.000 C 328.580 212.000,328.400 211.730,328.400 211.400 C 328.400 211.070,328.250 210.800,328.068 210.800 C 327.885 210.800,327.481 210.305,327.170 209.700 C 326.860 209.095,326.289 208.309,325.903 207.953 C 325.516 207.597,325.200 207.012,325.200 206.653 C 325.200 206.294,324.990 206.000,324.733 206.000 C 324.477 206.000,324.376 205.891,324.509 205.758 C 324.642 205.624,324.312 205.076,323.776 204.539 C 323.239 204.003,322.800 203.398,322.800 203.195 C 322.800 202.992,322.170 202.197,321.400 201.427 C 320.630 200.657,320.000 199.849,320.000 199.633 C 320.000 199.057,307.912 186.400,307.362 186.400 C 307.215 186.400,306.754 186.008,306.338 185.529 C 305.174 184.187,304.865 184.984,304.681 189.800 C 304.369 198.008,303.577 206.485,303.023 207.549 C 302.196 209.138,300.981 210.400,300.277 210.400 C 299.930 210.400,299.536 210.580,299.400 210.800 C 299.264 211.020,298.724 211.200,298.200 211.200 C 297.676 211.200,297.136 211.020,297.000 210.800 C 296.864 210.580,296.223 210.400,295.576 210.400 C 294.929 210.400,294.400 210.220,294.400 210.000 C 294.400 209.780,293.961 209.600,293.424 209.600 C 292.887 209.600,292.336 209.420,292.200 209.200 C 292.064 208.980,291.524 208.800,291.000 208.800 C 290.476 208.800,289.936 208.620,289.800 208.400 C 289.664 208.180,289.059 208.000,288.456 208.000 C 287.853 208.000,287.189 207.851,286.980 207.670 C 286.771 207.488,285.790 207.110,284.800 206.831 C 283.810 206.551,282.712 206.175,282.360 205.995 C 281.808 205.713,281.652 206.226,281.224 209.734 C 280.950 211.970,280.549 214.520,280.332 215.400 C 279.365 219.314,279.100 220.243,278.761 220.895 C 278.562 221.277,278.400 221.941,278.400 222.371 C 278.400 222.801,278.220 223.264,278.000 223.400 C 277.780 223.536,277.600 223.997,277.600 224.424 C 277.600 224.851,277.420 225.200,277.200 225.200 C 276.980 225.200,276.800 225.650,276.800 226.200 C 276.800 226.750,276.620 227.200,276.400 227.200 C 276.180 227.200,276.000 227.549,276.000 227.976 C 276.000 228.403,275.820 228.864,275.600 229.000 C 275.380 229.136,275.200 229.597,275.200 230.024 C 275.200 230.451,275.020 230.800,274.800 230.800 C 274.580 230.800,274.400 231.053,274.400 231.362 C 274.400 231.957,271.323 238.040,269.828 240.400 C 266.574 245.538,265.034 247.817,264.739 247.933 C 264.553 248.007,264.396 248.277,264.391 248.533 C 264.386 248.790,263.748 249.720,262.975 250.600 C 262.201 251.480,260.780 253.100,259.816 254.200 C 256.321 258.191,250.602 263.794,247.771 266.001 C 245.156 268.040,238.195 272.800,237.827 272.800 C 237.747 272.800,236.538 273.481,235.141 274.314 C 233.743 275.146,231.700 276.271,230.600 276.814 C 229.500 277.356,228.540 277.935,228.467 278.100 C 228.393 278.265,227.988 278.400,227.567 278.400 C 227.145 278.400,226.800 278.580,226.800 278.800 C 226.800 279.020,226.547 279.200,226.238 279.200 C 225.929 279.200,224.894 279.586,223.938 280.057 C 222.311 280.859,221.533 281.194,219.300 282.054 C 218.805 282.244,217.995 282.556,217.500 282.746 C 217.005 282.937,216.150 283.285,215.600 283.520 C 215.050 283.755,213.880 284.164,213.000 284.429 C 212.120 284.694,211.040 285.052,210.600 285.224 C 207.136 286.577,193.166 286.571,189.800 285.214 C 189.360 285.036,188.190 284.659,187.200 284.376 C 186.210 284.093,185.229 283.712,185.020 283.530 C 184.811 283.349,184.344 283.200,183.981 283.200 C 183.619 283.200,182.800 282.950,182.161 282.644 C 181.523 282.338,180.370 281.819,179.600 281.490 C 178.830 281.162,177.390 280.540,176.400 280.108 C 175.410 279.676,174.015 279.071,173.300 278.764 C 172.585 278.456,172.000 278.069,172.000 277.902 C 172.000 277.736,171.640 277.600,171.200 277.600 C 170.760 277.600,170.400 277.420,170.400 277.200 C 170.400 276.980,170.040 276.800,169.600 276.800 C 169.160 276.800,168.800 276.662,168.800 276.494 C 168.800 276.326,168.125 275.878,167.300 275.499 C 164.713 274.310,155.716 268.745,155.200 268.015 C 155.090 267.859,154.709 267.567,154.354 267.366 C 152.061 266.067,140.647 255.100,138.400 252.037 C 137.850 251.287,137.211 250.477,136.981 250.237 C 136.751 249.996,135.948 248.900,135.198 247.800 C 134.447 246.700,133.680 245.620,133.493 245.400 C 133.306 245.180,132.767 244.370,132.296 243.600 C 131.824 242.830,130.889 241.300,130.217 240.200 C 129.546 239.100,127.851 235.860,126.451 233.000 C 124.048 228.088,123.656 227.233,122.700 224.800 C 122.484 224.250,122.148 223.487,121.953 223.105 C 121.759 222.723,121.600 222.059,121.600 221.629 C 121.600 221.199,121.420 220.736,121.200 220.600 C 120.980 220.464,120.800 219.924,120.800 219.400 C 120.800 218.876,120.620 218.336,120.400 218.200 C 120.180 218.064,120.000 217.434,120.000 216.800 C 120.000 216.166,119.839 215.548,119.642 215.426 C 119.250 215.184,118.914 213.244,118.548 209.100 C 118.312 206.429,116.808 205.169,115.800 206.800 C 115.664 207.020,115.201 207.200,114.771 207.200 C 114.341 207.200,113.677 207.358,113.295 207.551 C 112.128 208.140,109.792 208.800,108.872 208.800 C 108.392 208.800,108.000 208.961,108.000 209.158 C 108.000 209.934,100.596 210.640,99.367 209.982 C 98.159 209.336,97.124 207.158,96.715 204.400 C 95.895 198.871,95.548 195.464,95.371 191.200 C 95.086 184.351,94.986 184.106,93.200 185.889 M80.200 308.072 C 80.200 310.590,80.045 311.725,79.671 311.956 C 79.090 312.315,79.060 318.026,79.637 318.409 C 79.811 318.524,79.990 319.919,80.037 321.509 C 80.083 323.099,80.274 324.400,80.461 324.400 C 80.647 324.400,80.800 325.300,80.800 326.400 C 80.800 327.500,80.980 328.400,81.200 328.400 C 81.420 328.400,81.600 329.120,81.600 330.000 C 81.600 330.880,81.780 331.600,82.000 331.600 C 82.220 331.600,82.400 332.129,82.400 332.776 C 82.400 333.423,82.580 334.064,82.800 334.200 C 83.020 334.336,83.200 334.876,83.200 335.400 C 83.200 335.924,83.380 336.464,83.600 336.600 C 83.820 336.736,84.000 337.287,84.000 337.824 C 84.000 338.361,84.180 338.800,84.400 338.800 C 84.620 338.800,84.800 339.250,84.800 339.800 C 84.800 340.350,84.980 340.800,85.200 340.800 C 85.420 340.800,85.600 341.160,85.600 341.600 C 85.600 342.040,85.780 342.400,86.000 342.400 C 86.220 342.400,86.400 342.760,86.400 343.200 C 86.400 343.640,86.580 344.000,86.800 344.000 C 87.020 344.000,87.200 344.360,87.200 344.800 C 87.200 345.240,87.380 345.600,87.600 345.600 C 87.820 345.600,88.000 345.960,88.000 346.400 C 88.000 346.840,88.180 347.200,88.400 347.200 C 88.620 347.200,88.800 347.520,88.800 347.912 C 88.800 348.303,89.160 348.883,89.600 349.200 C 90.040 349.517,90.400 350.057,90.400 350.400 C 90.400 350.743,90.760 351.283,91.200 351.600 C 91.640 351.917,92.000 352.407,92.000 352.688 C 92.000 352.970,92.180 353.200,92.400 353.200 C 92.620 353.200,92.800 353.390,92.800 353.622 C 92.800 353.854,93.339 354.619,93.998 355.322 C 94.657 356.025,95.197 356.735,95.198 356.900 C 95.201 357.331,98.423 360.400,98.872 360.400 C 99.078 360.400,99.136 360.580,99.000 360.800 C 98.451 361.689,101.249 361.122,103.861 359.815 C 109.938 356.775,118.483 355.490,126.800 356.367 C 132.683 356.987,135.586 357.951,141.818 361.353 C 144.478 362.806,148.559 366.563,151.000 369.806 C 153.777 373.496,157.200 380.961,157.200 383.328 C 157.200 384.519,158.685 385.600,160.320 385.600 C 161.156 385.600,162.011 385.764,162.220 385.965 C 162.575 386.306,163.750 386.473,169.800 387.042 C 171.120 387.166,172.371 387.432,172.580 387.634 C 172.789 387.835,174.533 388.000,176.456 388.000 C 178.379 388.000,180.064 388.180,180.200 388.400 C 180.349 388.640,183.063 388.800,187.000 388.800 C 190.672 388.800,193.655 388.966,193.786 389.177 C 193.915 389.386,196.686 389.554,200.000 389.554 C 203.314 389.554,206.085 389.386,206.214 389.177 C 206.345 388.966,209.328 388.800,213.000 388.800 C 216.937 388.800,219.651 388.640,219.800 388.400 C 219.937 388.179,221.737 388.000,223.824 388.000 C 226.075 388.000,227.600 387.838,227.600 387.600 C 227.600 387.374,228.733 387.200,230.200 387.200 C 231.667 387.200,232.800 387.026,232.800 386.800 C 232.800 386.578,233.859 386.400,235.176 386.400 C 236.483 386.400,237.664 386.220,237.800 386.000 C 237.936 385.780,238.819 385.600,239.762 385.600 C 241.886 385.600,242.570 384.911,243.344 381.988 C 249.123 360.165,275.112 349.355,296.630 359.823 C 298.186 360.580,299.737 361.200,300.076 361.200 C 300.670 361.200,305.200 357.140,305.200 356.608 C 305.200 356.464,305.826 355.684,306.592 354.873 C 307.357 354.063,308.189 352.905,308.440 352.300 C 308.692 351.695,309.055 351.200,309.249 351.200 C 309.442 351.200,309.600 350.922,309.600 350.583 C 309.600 350.244,309.960 349.580,310.400 349.108 C 310.840 348.636,311.200 348.013,311.200 347.725 C 311.200 347.436,311.380 347.200,311.600 347.200 C 311.820 347.200,312.000 346.840,312.000 346.400 C 312.000 345.960,312.180 345.600,312.400 345.600 C 312.620 345.600,312.800 345.240,312.800 344.800 C 312.800 344.360,312.980 344.000,313.200 344.000 C 313.420 344.000,313.600 343.640,313.600 343.200 C 313.600 342.760,313.780 342.400,314.000 342.400 C 314.220 342.400,314.400 342.040,314.400 341.600 C 314.400 341.160,314.580 340.800,314.800 340.800 C 315.020 340.800,315.200 340.350,315.200 339.800 C 315.200 339.250,315.380 338.800,315.600 338.800 C 315.820 338.800,316.000 338.361,316.000 337.824 C 316.000 337.287,316.180 336.736,316.400 336.600 C 316.620 336.464,316.800 335.924,316.800 335.400 C 316.800 334.876,316.980 334.336,317.200 334.200 C 317.420 334.064,317.600 333.423,317.600 332.776 C 317.600 332.129,317.780 331.600,318.000 331.600 C 318.220 331.600,318.400 330.880,318.400 330.000 C 318.400 329.120,318.580 328.400,318.800 328.400 C 319.020 328.400,319.200 327.500,319.200 326.400 C 319.200 325.300,319.380 324.400,319.600 324.400 C 319.831 324.400,320.000 323.133,320.000 321.400 C 320.000 319.530,320.162 318.400,320.429 318.400 C 320.864 318.400,320.785 315.930,320.109 308.315 L 319.800 304.831 318.000 306.008 C 317.010 306.656,316.011 307.324,315.780 307.493 C 315.548 307.662,314.918 308.062,314.380 308.381 C 313.841 308.701,311.780 309.950,309.800 311.156 C 306.292 313.293,290.400 321.453,286.800 322.966 C 285.810 323.382,284.010 324.163,282.800 324.702 C 277.506 327.059,264.642 331.573,258.594 333.197 C 242.857 337.423,236.203 338.637,219.132 340.400 C 214.066 340.924,185.995 340.916,180.714 340.390 C 175.055 339.826,170.455 339.241,166.200 338.542 C 164.220 338.216,161.610 337.793,160.400 337.601 C 159.190 337.409,157.390 337.073,156.400 336.854 C 155.410 336.635,153.340 336.180,151.800 335.842 C 141.109 333.493,124.718 328.072,115.288 323.765 C 114.127 323.234,113.062 322.800,112.923 322.800 C 111.238 322.800,86.188 308.980,81.400 305.409 L 80.200 304.514 80.200 308.072 " stroke="none" fill="#eb5d5d" fill-rule="evenodd"></path><path id="path1" d="M167.000 104.931 C 162.858 106.817,162.094 119.268,165.901 122.826 C 167.760 124.564,171.526 124.443,173.385 122.585 C 174.616 121.353,174.800 120.246,174.800 114.084 L 174.800 107.756 173.432 106.263 C 171.838 104.523,169.129 103.962,167.000 104.931 M228.611 104.672 C 228.178 104.794,227.233 105.537,226.511 106.325 L 225.200 107.756 225.200 114.084 C 225.200 121.243,225.446 122.099,227.910 123.500 C 232.790 126.275,236.403 122.219,236.372 114.000 C 236.344 106.500,233.652 103.264,228.611 104.672 M313.000 278.246 C 311.460 279.455,308.130 281.873,305.600 283.620 C 303.070 285.366,300.100 287.434,299.000 288.215 C 297.900 288.997,296.370 289.933,295.600 290.297 C 294.830 290.661,294.110 291.058,294.000 291.179 C 292.712 292.601,268.927 304.000,267.248 304.000 C 266.857 304.000,262.947 305.490,261.905 306.036 C 261.523 306.236,260.859 306.400,260.429 306.400 C 259.999 306.400,259.536 306.580,259.400 306.800 C 259.264 307.020,258.801 307.200,258.371 307.200 C 257.941 307.200,257.277 307.362,256.895 307.561 C 256.513 307.760,255.390 308.140,254.400 308.407 C 253.410 308.673,252.240 309.037,251.800 309.215 C 251.360 309.394,250.460 309.651,249.800 309.788 C 248.673 310.021,247.717 310.252,243.800 311.240 C 236.793 313.008,230.452 314.083,220.000 315.275 C 213.868 315.975,186.718 315.988,180.400 315.295 C 171.841 314.356,165.232 313.302,159.600 311.979 C 156.449 311.239,154.238 310.762,152.896 310.534 C 152.179 310.412,151.494 310.151,151.373 309.956 C 151.252 309.760,150.634 309.600,150.000 309.600 C 149.366 309.600,148.736 309.420,148.600 309.200 C 148.464 308.980,147.834 308.800,147.200 308.800 C 146.566 308.800,145.936 308.620,145.800 308.400 C 145.664 308.180,145.201 308.000,144.771 308.000 C 144.341 308.000,143.677 307.841,143.295 307.646 C 142.913 307.451,141.340 306.902,139.800 306.426 C 138.260 305.949,136.595 305.388,136.100 305.179 C 135.605 304.971,134.795 304.640,134.300 304.444 C 124.113 300.419,108.953 293.353,107.600 292.000 C 107.490 291.890,106.680 291.423,105.800 290.962 C 103.193 289.595,101.600 288.648,97.800 286.201 C 94.581 284.129,87.717 279.338,87.200 278.803 C 86.529 278.107,83.918 276.349,83.773 276.494 C 83.587 276.679,82.626 282.090,82.013 286.400 C 81.071 293.027,80.809 295.711,80.709 299.791 L 80.600 304.182 83.600 306.275 C 85.250 307.426,86.825 308.375,87.100 308.384 C 87.375 308.393,87.600 308.559,87.600 308.753 C 87.600 308.948,87.915 309.207,88.300 309.329 C 88.985 309.546,91.204 310.804,91.600 311.200 C 91.814 311.414,92.433 311.774,96.200 313.878 C 98.681 315.264,110.502 321.119,113.500 322.447 C 114.435 322.861,116.055 323.583,117.100 324.051 C 118.145 324.519,119.360 325.034,119.800 325.197 C 121.730 325.911,124.746 327.164,125.695 327.647 C 126.077 327.841,126.664 328.000,127.000 328.000 C 127.336 328.000,127.923 328.174,128.305 328.386 C 130.258 329.471,145.954 334.085,152.200 335.409 C 171.071 339.411,178.732 340.175,200.000 340.175 C 214.781 340.175,220.435 339.905,228.600 338.809 C 230.140 338.602,232.660 338.264,234.200 338.057 C 239.389 337.362,248.220 335.451,256.200 333.297 C 264.562 331.040,264.748 330.986,265.047 330.686 C 265.205 330.529,265.717 330.400,266.187 330.400 C 266.656 330.400,267.211 330.252,267.420 330.072 C 267.629 329.892,269.150 329.319,270.800 328.800 C 272.450 328.281,273.971 327.708,274.180 327.528 C 274.389 327.348,274.867 327.200,275.242 327.200 C 275.617 327.200,276.706 326.814,277.662 326.343 C 278.618 325.872,279.805 325.332,280.300 325.143 C 284.077 323.703,285.491 323.058,294.800 318.534 C 308.077 312.081,307.416 312.428,311.871 309.599 C 319.898 304.504,320.000 304.419,320.000 302.871 C 320.000 300.066,318.789 288.670,317.994 284.000 C 317.789 282.790,317.419 280.495,317.174 278.900 C 316.640 275.428,316.596 275.422,313.000 278.246 M114.000 356.785 C 113.670 356.971,112.590 357.332,111.600 357.588 C 107.968 358.528,106.942 358.895,104.104 360.266 C 101.892 361.335,100.924 361.603,100.004 361.401 C 99.342 361.255,98.800 361.292,98.800 361.482 C 98.800 361.672,98.247 362.154,97.570 362.554 C 95.644 363.692,91.200 368.367,91.200 369.256 C 91.200 369.504,90.884 369.997,90.497 370.353 C 90.111 370.709,89.540 371.495,89.230 372.100 C 88.919 372.705,88.515 373.200,88.332 373.200 C 88.150 373.200,88.000 373.560,88.000 374.000 C 88.000 374.440,87.820 374.800,87.600 374.800 C 87.380 374.800,87.200 375.160,87.200 375.600 C 87.200 376.040,87.020 376.400,86.800 376.400 C 86.580 376.400,86.400 376.850,86.400 377.400 C 86.400 377.950,86.220 378.400,86.000 378.400 C 85.780 378.400,85.600 378.940,85.600 379.600 C 85.600 380.260,85.420 380.800,85.200 380.800 C 84.980 380.800,84.800 381.700,84.800 382.800 C 84.800 383.900,84.620 384.800,84.400 384.800 C 84.157 384.800,84.000 386.600,84.000 389.400 C 84.000 392.200,84.157 394.000,84.400 394.000 C 84.620 394.000,84.800 394.360,84.800 394.800 C 84.800 395.240,84.980 395.600,85.200 395.600 C 85.420 395.600,85.600 395.878,85.600 396.218 C 85.600 397.021,87.034 398.411,88.800 399.322 C 90.121 400.002,92.001 400.036,122.013 399.922 L 153.827 399.800 155.283 398.344 C 157.878 395.748,158.400 394.221,158.400 389.216 C 158.400 385.650,158.290 384.800,157.827 384.800 C 157.512 384.800,157.171 384.485,157.070 384.100 C 156.968 383.715,156.658 382.500,156.380 381.400 C 153.311 369.247,143.115 360.069,129.094 356.839 C 126.880 356.329,114.886 356.286,114.000 356.785 M272.000 356.786 C 271.670 357.007,270.916 357.191,270.324 357.194 C 269.732 357.197,269.136 357.380,269.000 357.600 C 268.864 357.820,268.358 358.003,267.876 358.006 C 266.863 358.013,264.791 358.712,262.839 359.707 C 262.090 360.088,261.235 360.400,260.939 360.400 C 260.642 360.400,260.400 360.580,260.400 360.800 C 260.400 361.020,260.207 361.200,259.972 361.200 C 256.312 361.200,246.446 373.137,244.435 380.000 C 243.479 383.260,243.084 384.194,242.438 384.717 C 241.041 385.849,241.833 396.400,243.315 396.400 C 243.545 396.400,243.620 396.514,243.481 396.653 C 243.145 396.988,245.529 399.193,246.715 399.644 C 248.589 400.356,309.873 400.086,311.279 399.359 C 312.883 398.529,314.400 397.003,314.400 396.218 C 314.400 395.878,314.580 395.600,314.800 395.600 C 315.020 395.600,315.200 395.240,315.200 394.800 C 315.200 394.360,315.380 394.000,315.600 394.000 C 315.843 394.000,316.000 392.200,316.000 389.400 C 316.000 386.600,315.843 384.800,315.600 384.800 C 315.380 384.800,315.200 383.900,315.200 382.800 C 315.200 381.700,315.020 380.800,314.800 380.800 C 314.580 380.800,314.400 380.260,314.400 379.600 C 314.400 378.940,314.220 378.400,314.000 378.400 C 313.780 378.400,313.600 378.076,313.600 377.680 C 313.600 376.786,312.706 374.807,312.300 374.803 C 312.135 374.801,312.000 374.440,312.000 374.000 C 312.000 373.560,311.820 373.200,311.600 373.200 C 311.380 373.200,311.200 372.957,311.200 372.659 C 311.200 372.362,310.660 371.554,310.000 370.863 C 309.340 370.172,308.800 369.339,308.800 369.010 C 308.800 368.250,303.136 362.560,302.030 362.210 C 301.574 362.065,301.200 361.719,301.200 361.442 C 301.200 361.120,300.803 360.997,300.100 361.100 C 299.398 361.203,297.848 360.721,295.815 359.769 C 292.723 358.321,291.778 358.000,288.000 357.120 C 285.518 356.542,272.762 356.275,272.000 356.786 " stroke="none" fill="#524951" fill-rule="evenodd"></path><path id="path2" d="M316.185 9.976 C 316.313 10.182,316.098 10.362,315.709 10.374 C 312.704 10.470,311.524 10.675,311.230 11.151 C 311.043 11.454,310.689 11.579,310.445 11.428 C 310.200 11.276,310.000 11.343,310.000 11.576 C 310.000 11.809,309.640 12.000,309.200 12.000 C 308.760 12.000,308.400 12.180,308.400 12.400 C 308.400 12.620,308.146 12.800,307.835 12.800 C 307.191 12.800,302.808 17.075,303.126 17.393 C 303.240 17.507,303.023 17.600,302.643 17.600 C 302.263 17.600,302.055 17.765,302.180 17.968 C 302.305 18.170,302.136 18.607,301.804 18.939 C 301.099 19.644,301.008 21.248,301.637 21.877 C 301.953 22.193,301.953 22.540,301.637 23.131 C 301.397 23.580,301.200 25.565,301.200 27.541 C 301.200 31.555,301.005 32.400,300.077 32.400 C 299.582 32.400,299.547 32.507,299.920 32.880 C 300.184 33.144,300.400 33.695,300.400 34.104 C 300.400 34.582,300.578 34.747,300.900 34.565 C 301.288 34.346,301.294 34.398,300.926 34.796 C 300.558 35.193,300.581 35.439,301.029 35.887 C 301.347 36.204,301.488 36.658,301.342 36.894 C 301.183 37.151,301.265 37.207,301.545 37.034 C 301.802 36.875,301.913 36.582,301.790 36.384 C 301.515 35.938,302.558 35.717,306.338 35.419 C 315.294 34.713,322.478 25.845,321.409 16.817 C 321.094 14.159,319.983 10.315,319.411 9.906 C 318.804 9.472,315.913 9.535,316.185 9.976 M333.190 36.626 C 332.976 37.190,332.805 37.775,332.812 37.926 C 332.830 38.322,333.754 36.694,333.849 36.100 C 333.987 35.242,333.598 35.552,333.190 36.626 M331.500 39.232 C 330.706 39.695,330.565 40.400,331.267 40.400 C 331.523 40.400,331.616 40.283,331.473 40.140 C 331.330 39.996,331.525 39.642,331.906 39.352 C 332.730 38.727,332.489 38.656,331.500 39.232 M327.776 42.587 C 327.117 43.086,327.099 43.176,327.657 43.187 C 328.019 43.194,328.418 42.930,328.545 42.600 C 328.831 41.855,328.747 41.853,327.776 42.587 M112.400 54.062 C 112.400 54.248,111.942 54.400,111.383 54.400 C 110.823 54.400,109.890 54.840,109.310 55.379 C 108.729 55.917,108.152 56.301,108.027 56.231 C 107.787 56.098,105.981 57.840,105.993 58.193 C 106.023 59.068,105.951 59.217,105.600 59.000 C 105.380 58.864,105.200 59.033,105.200 59.376 C 105.200 59.719,105.059 60.000,104.887 60.000 C 104.715 60.000,104.534 60.495,104.484 61.100 C 104.434 61.705,104.215 62.260,103.997 62.333 C 103.459 62.514,103.463 77.068,104.000 77.400 C 104.220 77.536,104.400 78.087,104.400 78.624 C 104.400 79.161,104.580 79.600,104.800 79.600 C 105.020 79.600,105.200 79.981,105.200 80.447 C 105.200 81.207,107.373 83.578,108.084 83.594 C 108.241 83.597,108.691 83.938,109.084 84.350 C 109.478 84.763,110.250 85.237,110.800 85.404 C 111.350 85.571,111.935 85.909,112.100 86.154 C 112.315 86.474,112.492 86.457,112.727 86.094 C 112.989 85.689,128.912 85.569,192.227 85.494 L 271.400 85.400 273.529 84.220 C 278.065 81.708,279.573 78.200,279.590 70.120 C 279.607 62.323,278.454 59.274,274.400 56.394 L 273.000 55.400 195.468 55.200 C 121.734 55.010,117.910 54.965,117.415 54.288 C 116.867 53.539,112.400 53.338,112.400 54.062 M296.151 70.400 C 296.151 72.930,296.216 73.965,296.296 72.700 C 296.375 71.435,296.375 69.365,296.296 68.100 C 296.216 66.835,296.151 67.870,296.151 70.400 M112.452 125.737 C 112.207 126.032,112.125 126.392,112.270 126.537 C 112.415 126.682,112.319 126.800,112.057 126.800 C 111.675 126.800,110.911 128.071,110.615 129.200 C 110.586 129.310,110.166 130.030,109.682 130.800 C 109.199 131.570,108.802 132.424,108.801 132.697 C 108.799 133.458,107.452 136.400,107.106 136.400 C 106.938 136.400,106.800 136.760,106.800 137.200 C 106.800 137.640,106.620 138.000,106.400 138.000 C 106.180 138.000,106.000 138.360,106.000 138.800 C 106.000 139.240,105.809 139.600,105.576 139.600 C 105.343 139.600,105.248 139.753,105.364 139.941 C 105.480 140.129,105.316 140.624,105.000 141.041 C 104.684 141.458,104.420 142.115,104.413 142.500 C 104.406 142.885,104.258 143.200,104.085 143.200 C 103.912 143.200,103.740 143.602,103.703 144.094 C 103.666 144.586,103.448 145.051,103.218 145.127 C 102.988 145.204,102.800 145.702,102.800 146.233 C 102.800 146.765,102.620 147.200,102.400 147.200 C 102.180 147.200,102.000 147.819,102.000 148.576 C 102.000 149.333,101.820 150.064,101.600 150.200 C 101.380 150.336,101.200 150.897,101.200 151.447 C 101.200 151.997,101.043 152.350,100.850 152.231 C 100.658 152.112,100.500 152.499,100.500 153.091 C 100.500 153.682,100.298 154.234,100.050 154.317 C 99.803 154.399,99.600 155.172,99.600 156.033 C 99.600 156.895,99.420 157.600,99.200 157.600 C 98.980 157.600,98.800 158.320,98.800 159.200 C 98.800 160.080,98.620 160.800,98.400 160.800 C 98.180 160.800,98.000 161.419,98.000 162.176 C 98.000 162.933,97.841 163.651,97.647 163.771 C 97.453 163.891,97.284 164.725,97.272 165.624 C 97.259 166.523,97.085 167.470,96.885 167.729 C 96.685 167.988,96.483 169.179,96.437 170.376 C 96.391 171.572,96.229 172.742,96.077 172.976 C 95.925 173.209,95.773 174.801,95.738 176.514 C 95.704 178.226,95.506 179.846,95.298 180.114 C 94.680 180.911,94.963 183.937,95.708 184.498 C 96.266 184.919,96.403 186.035,96.554 191.400 C 96.653 194.920,96.924 199.150,97.158 200.800 C 97.391 202.450,97.693 204.642,97.829 205.670 C 98.134 207.978,100.077 210.000,101.989 210.000 C 102.655 210.000,103.200 209.820,103.200 209.600 C 103.200 209.380,103.729 209.200,104.376 209.200 C 105.023 209.200,105.664 209.020,105.800 208.800 C 105.936 208.580,106.566 208.400,107.200 208.400 C 107.834 208.400,108.464 208.220,108.600 208.000 C 108.736 207.780,109.276 207.600,109.800 207.600 C 110.324 207.600,110.864 207.420,111.000 207.200 C 111.136 206.980,111.766 206.800,112.400 206.800 C 113.034 206.800,113.664 206.620,113.800 206.400 C 113.936 206.180,114.577 206.000,115.224 206.000 C 115.871 206.000,116.400 205.809,116.400 205.575 C 116.400 205.336,116.970 205.204,117.700 205.275 C 118.987 205.399,119.005 205.431,119.515 208.400 C 120.453 213.862,120.881 215.770,121.845 218.801 C 122.370 220.452,122.800 222.117,122.800 222.501 C 122.800 222.886,122.980 223.200,123.200 223.200 C 123.420 223.200,123.600 223.472,123.600 223.804 C 123.600 225.218,130.122 238.382,132.447 241.662 C 132.861 242.246,133.200 242.906,133.200 243.128 C 133.200 243.351,133.342 243.593,133.514 243.667 C 133.687 243.740,134.262 244.430,134.791 245.200 C 141.194 254.523,153.985 266.974,160.723 270.444 C 161.315 270.749,161.890 271.089,162.000 271.199 C 162.394 271.595,164.613 272.854,165.300 273.071 C 165.685 273.193,166.000 273.419,166.000 273.572 C 166.000 273.725,166.630 274.098,167.400 274.400 C 168.170 274.702,168.800 275.096,168.800 275.275 C 168.800 275.454,169.160 275.600,169.600 275.600 C 170.040 275.600,170.400 275.780,170.400 276.000 C 170.400 276.220,170.760 276.400,171.200 276.400 C 171.640 276.400,172.000 276.580,172.000 276.800 C 172.000 277.020,172.360 277.200,172.800 277.200 C 173.240 277.200,173.600 277.336,173.600 277.502 C 173.600 277.669,174.095 278.008,174.700 278.257 C 175.305 278.506,177.330 279.342,179.200 280.114 C 181.070 280.887,183.770 281.909,185.200 282.386 C 186.630 282.862,188.160 283.407,188.600 283.596 C 189.604 284.028,191.050 284.337,194.600 284.882 C 198.656 285.504,199.664 285.446,201.735 284.473 C 202.756 283.993,203.679 283.600,203.786 283.600 C 204.098 283.600,209.221 281.260,211.400 280.122 C 220.507 275.365,226.664 271.439,232.110 266.918 C 237.517 262.428,249.195 249.152,249.894 246.700 C 250.004 246.315,250.252 246.000,250.447 246.000 C 250.641 246.000,250.800 245.807,250.800 245.572 C 250.800 245.337,251.317 244.392,251.948 243.472 C 254.617 239.586,259.368 229.235,261.436 222.800 C 262.875 218.323,263.066 217.628,263.617 214.870 C 264.558 210.160,267.093 209.000,272.634 210.745 C 277.728 212.350,279.651 212.882,279.802 212.731 C 279.889 212.644,280.085 211.319,280.237 209.787 C 280.628 205.855,280.933 205.200,282.366 205.200 C 283.019 205.200,283.664 205.380,283.800 205.600 C 284.121 206.120,285.880 206.118,286.201 205.598 C 286.338 205.377,286.715 202.092,287.038 198.298 C 288.106 185.792,286.323 170.108,282.389 157.400 C 281.396 154.192,280.310 150.910,279.974 150.100 C 278.680 146.986,278.515 146.567,277.560 144.000 C 277.274 143.230,275.808 140.103,274.302 137.052 L 271.565 131.503 270.083 131.745 C 269.267 131.878,266.440 132.694,263.800 133.558 C 258.352 135.342,252.516 137.106,250.300 137.639 C 247.181 138.389,245.686 138.756,241.800 139.723 C 239.600 140.271,236.720 140.932,235.400 141.192 C 234.080 141.452,232.280 141.819,231.400 142.007 C 229.606 142.389,224.434 143.150,222.600 143.301 C 221.244 143.413,221.183 143.829,221.993 147.400 C 223.245 152.911,220.576 159.049,215.332 162.721 C 213.315 164.133,209.587 166.000,208.783 166.000 C 208.378 166.000,207.950 166.157,207.832 166.348 C 207.061 167.596,192.939 167.596,192.168 166.348 C 192.050 166.157,191.622 166.000,191.217 166.000 C 189.696 166.000,184.133 162.669,182.541 160.806 C 182.069 160.252,181.289 159.350,180.807 158.800 C 178.473 156.133,176.852 147.812,178.348 146.180 C 178.540 145.971,178.812 145.309,178.954 144.709 C 179.240 143.495,179.112 143.434,175.400 143.022 C 170.090 142.434,164.237 141.287,156.600 139.340 C 154.321 138.759,152.777 138.383,149.600 137.633 C 148.830 137.451,147.390 137.036,146.400 136.709 C 145.410 136.383,143.790 135.886,142.800 135.605 C 135.951 133.664,117.680 127.135,114.705 125.566 C 113.732 125.053,112.973 125.110,112.452 125.737 M290.012 130.400 C 290.012 131.090,290.680 132.270,290.911 131.988 C 290.996 131.885,290.829 131.350,290.539 130.800 C 290.248 130.249,290.012 130.069,290.012 130.400 " stroke="none" fill="#f4f3f3" fill-rule="evenodd"></path><path id="path3" d="M320.000 10.750 C 320.000 10.942,320.248 11.801,320.550 12.659 C 324.266 23.190,316.898 34.660,305.899 35.467 C 301.346 35.802,300.956 36.039,302.099 37.783 C 302.590 38.531,303.060 39.073,303.146 38.987 C 303.231 38.902,303.690 39.410,304.164 40.116 C 304.639 40.822,305.426 41.458,305.914 41.528 C 306.479 41.609,306.800 41.936,306.800 42.428 C 306.800 43.026,307.093 43.207,308.100 43.232 C 308.815 43.249,309.162 43.358,308.872 43.474 C 308.215 43.737,310.138 44.800,311.269 44.800 C 311.697 44.800,311.956 44.948,311.844 45.129 C 311.732 45.311,312.576 45.501,313.720 45.552 C 314.864 45.604,315.971 45.815,316.180 46.023 C 316.684 46.523,318.687 46.507,319.000 46.000 C 319.136 45.780,320.147 45.600,321.247 45.600 C 322.479 45.600,323.152 45.446,323.000 45.200 C 322.860 44.974,323.188 44.800,323.753 44.800 C 324.303 44.800,324.864 44.620,325.000 44.400 C 325.136 44.180,325.498 44.000,325.805 44.000 C 326.112 44.000,326.823 43.540,327.385 42.978 C 327.947 42.417,328.565 42.055,328.758 42.174 C 328.951 42.293,329.207 42.015,329.328 41.555 C 329.448 41.095,329.738 40.838,329.974 40.984 C 330.212 41.131,330.574 40.793,330.791 40.224 C 331.005 39.661,331.367 39.200,331.595 39.200 C 331.824 39.200,332.479 38.210,333.052 37.000 C 333.625 35.790,334.253 34.800,334.447 34.800 C 334.641 34.800,334.800 34.271,334.800 33.624 C 334.800 32.977,334.970 32.342,335.178 32.214 C 335.732 31.872,335.611 25.201,335.050 25.194 C 334.803 25.191,334.870 24.997,335.200 24.763 C 335.652 24.444,335.676 24.289,335.300 24.136 C 335.025 24.025,334.800 23.408,334.800 22.767 C 334.800 22.125,334.620 21.600,334.400 21.600 C 334.180 21.600,334.000 21.177,334.000 20.659 C 334.000 20.142,333.460 19.154,332.800 18.463 C 332.140 17.772,331.600 16.925,331.600 16.580 C 331.600 16.235,331.420 16.064,331.200 16.200 C 330.980 16.336,330.800 16.239,330.800 15.984 C 330.800 15.376,328.575 13.309,327.580 12.994 C 327.151 12.857,326.800 12.578,326.800 12.373 C 326.800 12.168,326.455 12.000,326.033 12.000 C 325.612 12.000,325.207 11.822,325.133 11.603 C 325.060 11.385,324.505 11.166,323.900 11.116 C 323.295 11.066,322.800 10.885,322.800 10.713 C 322.800 10.541,322.170 10.400,321.400 10.400 C 320.630 10.400,320.000 10.557,320.000 10.750 M300.881 27.867 C 300.837 29.664,300.696 31.464,300.570 31.867 C 300.356 32.546,300.372 32.549,300.786 31.906 C 301.054 31.490,301.179 29.893,301.098 27.906 L 300.963 24.600 300.881 27.867 M282.255 54.200 C 282.052 54.730,272.539 54.811,200.513 54.897 L 119.000 54.995 196.000 55.197 L 273.000 55.400 274.400 56.394 C 278.454 59.274,279.607 62.323,279.590 70.120 C 279.570 79.548,276.648 84.359,270.408 85.238 C 268.788 85.467,284.993 85.795,288.386 85.602 C 289.171 85.558,290.059 85.194,290.433 84.762 C 290.796 84.343,291.306 84.000,291.565 84.000 C 292.032 84.000,294.027 82.212,294.009 81.809 C 293.972 80.945,294.050 80.784,294.400 81.000 C 294.620 81.136,294.800 80.967,294.800 80.624 C 294.800 80.281,294.980 80.000,295.200 80.000 C 295.420 80.000,295.600 79.475,295.600 78.833 C 295.600 78.192,295.825 77.576,296.100 77.465 C 296.485 77.310,296.479 77.256,296.076 77.232 C 295.788 77.214,295.669 77.013,295.810 76.783 C 296.188 76.173,296.289 62.800,295.916 62.800 C 295.742 62.800,295.600 62.260,295.600 61.600 C 295.600 60.940,295.420 60.400,295.200 60.400 C 294.980 60.400,294.800 60.130,294.800 59.800 C 294.800 59.470,294.620 59.200,294.400 59.200 C 294.180 59.200,294.000 58.919,294.000 58.576 C 294.000 58.233,293.840 58.051,293.645 58.172 C 293.450 58.292,293.197 58.033,293.083 57.596 C 292.969 57.158,292.600 56.800,292.264 56.800 C 291.929 56.800,291.540 56.440,291.400 56.000 C 291.238 55.489,290.795 55.200,290.173 55.200 C 289.638 55.200,289.200 55.020,289.200 54.800 C 289.200 54.580,288.649 54.400,287.976 54.400 C 287.263 54.400,286.856 54.233,287.000 54.000 C 287.351 53.432,286.662 53.503,286.030 54.100 C 285.606 54.500,285.463 54.500,285.317 54.100 C 285.053 53.382,282.538 53.464,282.255 54.200 M114.100 85.476 C 114.485 85.576,115.115 85.576,115.500 85.476 C 115.885 85.375,115.570 85.293,114.800 85.293 C 114.030 85.293,113.715 85.375,114.100 85.476 M284.800 125.666 C 282.702 126.622,280.534 127.554,279.400 127.987 C 278.960 128.155,278.150 128.489,277.600 128.729 C 277.050 128.968,275.070 129.702,273.200 130.359 C 271.330 131.017,270.208 131.565,270.707 131.577 C 271.577 131.599,275.783 139.223,277.560 144.000 C 277.846 144.770,278.243 145.805,278.440 146.300 C 279.435 148.789,279.628 149.268,279.974 150.100 C 280.310 150.910,281.396 154.192,282.389 157.400 C 286.327 170.123,288.106 185.789,287.036 198.332 C 286.710 202.145,286.245 205.504,286.003 205.797 C 285.490 206.414,285.597 206.488,288.000 207.168 C 288.990 207.449,290.113 207.840,290.495 208.039 C 290.877 208.238,291.541 208.400,291.971 208.400 C 292.401 208.400,292.864 208.580,293.000 208.800 C 293.136 209.020,293.766 209.200,294.400 209.200 C 295.034 209.200,295.664 209.380,295.800 209.600 C 296.240 210.313,299.596 210.057,300.769 209.222 C 302.472 208.009,303.462 202.449,303.852 191.900 C 304.067 186.076,304.219 184.800,304.696 184.800 C 305.164 184.800,305.226 184.390,305.017 182.700 C 304.873 181.545,304.663 178.932,304.550 176.893 C 304.432 174.758,304.187 173.284,303.972 173.417 C 303.760 173.549,303.600 172.694,303.600 171.424 C 303.600 170.201,303.465 169.200,303.300 169.200 C 303.135 169.200,302.976 168.795,302.946 168.300 C 302.738 164.843,302.662 164.156,302.447 163.800 C 302.021 163.095,301.236 159.837,301.218 158.700 C 301.208 158.095,301.020 157.600,300.800 157.600 C 300.580 157.600,300.400 157.049,300.400 156.376 C 300.400 155.703,300.265 155.236,300.100 155.337 C 299.935 155.439,299.753 154.880,299.695 154.096 C 299.637 153.312,299.413 152.456,299.196 152.195 C 298.979 151.933,298.763 151.255,298.716 150.688 C 298.669 150.121,298.488 149.745,298.315 149.852 C 298.142 149.960,298.000 149.587,298.000 149.024 C 298.000 148.461,297.859 148.000,297.687 148.000 C 297.515 148.000,297.334 147.505,297.284 146.900 C 297.234 146.295,297.015 145.740,296.797 145.667 C 296.578 145.593,296.400 145.284,296.400 144.979 C 296.400 144.674,296.040 143.783,295.600 143.000 C 295.160 142.217,294.800 141.326,294.800 141.021 C 294.800 140.716,294.575 140.376,294.300 140.265 C 293.919 140.111,293.925 140.056,294.329 140.032 C 294.728 140.008,294.703 139.845,294.225 139.368 C 293.877 139.020,293.695 138.570,293.820 138.368 C 293.945 138.165,293.890 138.000,293.698 138.000 C 293.506 138.000,293.102 137.370,292.800 136.600 C 292.498 135.830,292.127 135.200,291.976 135.200 C 291.826 135.200,291.587 134.480,291.446 133.600 C 291.306 132.720,291.025 132.000,290.822 132.000 C 290.620 132.000,290.330 131.595,290.180 131.100 C 290.029 130.605,289.669 129.930,289.381 129.600 C 288.838 128.978,288.804 128.868,288.794 127.700 C 288.789 127.102,288.731 127.087,288.400 127.600 C 288.078 128.098,288.010 128.064,287.997 127.400 C 287.989 126.960,287.671 126.205,287.291 125.723 L 286.600 124.846 284.800 125.666 M119.400 127.571 C 120.280 127.994,121.270 128.347,121.600 128.355 C 122.286 128.371,120.239 127.427,118.774 127.051 C 118.238 126.914,118.520 127.148,119.400 127.571 M151.200 138.000 C 151.530 138.213,152.160 138.378,152.600 138.366 L 153.400 138.344 152.600 138.000 C 151.404 137.486,150.405 137.486,151.200 138.000 M238.000 140.400 C 237.196 140.657,237.157 140.723,237.800 140.732 C 238.240 140.738,238.960 140.589,239.400 140.400 C 240.419 139.962,239.368 139.962,238.000 140.400 M168.600 141.997 C 169.364 142.328,172.314 142.555,171.967 142.256 C 171.875 142.177,170.900 142.009,169.800 141.882 C 168.513 141.733,168.085 141.774,168.600 141.997 M229.400 142.000 L 227.800 142.286 229.200 142.315 C 229.970 142.331,230.960 142.189,231.400 142.000 C 232.343 141.595,231.662 141.595,229.400 142.000 M173.400 142.804 C 174.167 143.130,177.511 143.353,177.167 143.056 C 177.075 142.977,176.010 142.811,174.800 142.688 C 173.431 142.549,172.902 142.592,173.400 142.804 M223.505 143.083 C 224.002 143.179,224.722 143.175,225.105 143.075 C 225.487 142.975,225.080 142.896,224.200 142.901 C 223.320 142.905,223.007 142.987,223.505 143.083 M222.114 150.200 C 222.117 151.300,222.195 151.703,222.287 151.095 C 222.379 150.486,222.377 149.586,222.282 149.095 C 222.187 148.603,222.111 149.100,222.114 150.200 M198.300 167.493 C 199.235 167.577,200.765 167.577,201.700 167.493 C 202.635 167.409,201.870 167.340,200.000 167.340 C 198.130 167.340,197.365 167.409,198.300 167.493 M94.800 183.915 C 94.800 184.084,95.160 184.530,95.600 184.907 C 96.040 185.284,96.400 185.454,96.400 185.285 C 96.400 185.116,96.040 184.670,95.600 184.293 C 95.160 183.916,94.800 183.746,94.800 183.915 M96.638 199.000 C 96.970 200.984,97.202 201.304,97.194 199.767 C 97.191 199.125,97.004 198.330,96.779 198.000 C 96.486 197.570,96.446 197.854,96.638 199.000 M97.444 204.600 C 97.773 206.071,98.002 206.390,97.994 205.367 C 97.991 204.945,97.805 204.330,97.582 204.000 C 97.285 203.562,97.248 203.724,97.444 204.600 M280.493 208.000 C 280.493 208.770,280.575 209.085,280.676 208.700 C 280.776 208.315,280.776 207.685,280.676 207.300 C 280.575 206.915,280.493 207.230,280.493 208.000 M119.701 211.000 C 119.705 211.880,119.787 212.193,119.883 211.695 C 119.979 211.198,119.975 210.478,119.875 210.095 C 119.775 209.713,119.696 210.120,119.701 211.000 M265.292 211.170 C 264.440 212.021,263.985 213.027,263.617 214.870 C 261.992 223.004,256.119 237.400,251.948 243.472 C 251.317 244.392,250.800 245.337,250.800 245.572 C 250.800 245.807,250.641 246.000,250.447 246.000 C 250.252 246.000,250.004 246.315,249.894 246.700 C 249.195 249.152,237.517 262.428,232.110 266.918 C 226.664 271.439,220.507 275.365,211.400 280.122 C 209.221 281.260,204.098 283.600,203.786 283.600 C 203.679 283.600,202.828 283.944,201.896 284.364 C 200.963 284.784,199.930 285.220,199.600 285.332 C 198.085 285.849,205.055 285.529,207.461 284.971 C 210.978 284.156,217.840 281.880,220.631 280.603 C 221.837 280.051,222.926 279.600,223.051 279.600 C 223.526 279.600,230.206 276.223,230.333 275.919 C 230.407 275.744,230.812 275.600,231.233 275.600 C 231.655 275.600,232.000 275.454,232.000 275.275 C 232.000 275.096,232.630 274.702,233.400 274.400 C 234.170 274.098,234.800 273.725,234.800 273.572 C 234.800 273.419,235.115 273.187,235.500 273.058 C 240.402 271.407,254.151 260.043,260.010 252.800 C 260.988 251.590,261.891 250.510,262.015 250.400 C 262.139 250.290,262.862 249.300,263.621 248.200 C 264.379 247.100,265.115 246.110,265.256 246.000 C 266.392 245.111,274.800 229.739,274.800 228.551 C 274.800 228.248,274.980 228.000,275.200 228.000 C 275.420 228.000,275.600 227.728,275.600 227.395 C 275.600 227.062,275.759 226.477,275.953 226.095 C 276.429 225.160,277.018 223.693,277.600 222.000 C 277.864 221.230,278.233 220.240,278.420 219.800 C 279.092 218.212,280.470 211.664,280.284 210.940 C 280.173 210.510,280.073 210.745,280.046 211.500 C 279.987 213.169,280.564 213.228,272.634 210.742 C 269.011 209.606,266.722 209.739,265.292 211.170 M133.602 243.833 C 133.603 244.035,134.068 244.740,134.635 245.400 L 135.666 246.600 134.763 245.200 C 133.604 243.404,133.600 243.399,133.602 243.833 M136.400 248.000 C 136.870 248.660,137.344 249.200,137.454 249.200 C 137.564 249.200,137.270 248.660,136.800 248.000 C 136.330 247.340,135.856 246.800,135.746 246.800 C 135.636 246.800,135.930 247.340,136.400 248.000 M142.822 255.864 C 144.652 257.809,146.374 259.498,148.255 261.193 C 149.105 261.959,148.003 260.744,145.808 258.493 C 143.612 256.242,141.731 254.400,141.629 254.400 C 141.527 254.400,142.063 255.059,142.822 255.864 M150.944 263.509 C 151.260 264.021,153.600 265.753,153.600 265.475 C 153.600 265.376,152.939 264.791,152.132 264.175 C 151.324 263.559,150.789 263.259,150.944 263.509 M155.669 267.318 C 157.618 268.801,158.400 269.313,158.400 269.106 C 158.400 268.874,154.537 266.000,154.226 266.000 C 154.068 266.000,154.718 266.593,155.669 267.318 M182.236 281.576 C 182.693 282.010,186.452 283.281,186.660 283.073 C 186.745 282.988,185.702 282.539,184.343 282.075 C 182.983 281.611,182.035 281.387,182.236 281.576 M189.633 284.144 C 189.725 284.223,190.340 284.408,191.000 284.556 C 191.876 284.752,192.038 284.715,191.600 284.418 C 191.060 284.053,189.232 283.798,189.633 284.144 M192.833 284.944 C 192.925 285.024,194.080 285.189,195.400 285.312 C 196.891 285.451,197.421 285.411,196.800 285.207 C 195.812 284.884,192.511 284.665,192.833 284.944 " stroke="none" fill="#e4dce3" fill-rule="evenodd"></path><path id="path4" d="M153.500 54.300 C 173.135 54.357,205.265 54.357,224.900 54.300 C 244.535 54.243,228.470 54.196,189.200 54.196 C 149.930 54.196,133.865 54.243,153.500 54.300 M273.282 54.296 C 274.758 54.373,277.278 54.373,278.882 54.297 C 280.487 54.221,279.280 54.158,276.200 54.158 C 273.120 54.157,271.807 54.219,273.282 54.296 M196.600 134.376 C 196.160 134.578,195.136 134.756,194.324 134.772 C 193.512 134.787,192.736 134.980,192.600 135.200 C 192.464 135.420,191.924 135.600,191.400 135.600 C 190.876 135.600,190.336 135.780,190.200 136.000 C 190.064 136.220,189.685 136.400,189.357 136.400 C 187.741 136.400,180.800 142.104,180.800 143.432 C 180.800 143.744,180.620 144.000,180.400 144.000 C 180.180 144.000,180.000 144.349,180.000 144.776 C 180.000 145.203,179.820 145.664,179.600 145.800 C 179.380 145.936,179.200 146.656,179.200 147.400 C 179.200 148.144,179.020 148.864,178.800 149.000 C 178.580 149.136,178.400 149.676,178.400 150.200 C 178.400 150.724,178.580 151.264,178.800 151.400 C 179.020 151.536,179.200 152.160,179.200 152.786 C 179.200 154.227,180.616 156.962,182.299 158.769 C 183.014 159.537,183.691 160.443,183.803 160.783 C 184.080 161.615,187.298 163.652,190.000 164.704 C 204.574 170.382,221.564 162.539,221.594 150.119 C 221.600 147.706,221.460 147.157,219.983 143.800 C 218.444 140.304,214.223 136.975,208.800 134.983 C 206.737 134.225,197.887 133.785,196.600 134.376 M95.709 192.400 C 95.709 193.390,95.787 193.795,95.882 193.300 C 95.978 192.805,95.978 191.995,95.882 191.500 C 95.787 191.005,95.709 191.410,95.709 192.400 M141.200 254.925 C 141.200 254.994,141.785 255.579,142.500 256.225 L 143.800 257.400 142.625 256.100 C 141.530 254.888,141.200 254.616,141.200 254.925 M50.000 273.182 C 50.330 273.405,50.945 273.591,51.367 273.594 C 52.390 273.602,52.071 273.373,50.600 273.044 C 49.724 272.848,49.562 272.885,50.000 273.182 M78.341 281.301 C 78.543 281.503,79.133 281.601,79.654 281.519 C 80.455 281.393,80.398 281.337,79.287 281.152 C 78.493 281.021,78.119 281.079,78.341 281.301 M80.893 287.200 C 80.893 287.970,80.975 288.285,81.076 287.900 C 81.176 287.515,81.176 286.885,81.076 286.500 C 80.975 286.115,80.893 286.430,80.893 287.200 M80.109 294.000 C 80.109 294.990,80.187 295.395,80.282 294.900 C 80.378 294.405,80.378 293.595,80.282 293.100 C 80.187 292.605,80.109 293.010,80.109 294.000 M79.734 308.000 C 79.734 309.650,79.805 310.325,79.891 309.500 C 79.978 308.675,79.978 307.325,79.891 306.500 C 79.805 305.675,79.734 306.350,79.734 308.000 " stroke="none" fill="#f99b89" fill-rule="evenodd"></path><path id="path5" d="M263.300 54.696 C 264.565 54.775,266.635 54.775,267.900 54.696 C 269.165 54.616,268.130 54.551,265.600 54.551 C 263.070 54.551,262.035 54.616,263.300 54.696 M270.395 101.900 C 270.390 116.523,269.784 129.131,269.027 130.356 C 268.334 131.478,269.843 131.302,272.495 129.953 C 272.877 129.759,273.464 129.600,273.800 129.600 C 274.136 129.600,274.723 129.441,275.105 129.247 C 275.487 129.052,276.340 128.668,277.000 128.393 C 278.139 127.918,278.831 127.646,280.900 126.857 C 281.395 126.668,282.582 126.128,283.538 125.657 C 284.494 125.186,285.709 124.800,286.238 124.800 L 287.200 124.800 287.200 105.643 C 287.200 88.543,287.132 86.460,286.567 86.243 C 286.219 86.109,282.439 86.000,278.167 86.000 L 270.400 86.000 270.395 101.900 M173.829 105.638 C 174.473 106.429,175.081 107.008,175.179 106.925 C 175.278 106.842,174.751 106.195,174.009 105.487 L 172.658 104.200 173.829 105.638 M175.400 114.199 C 175.400 117.567,175.535 120.239,175.700 120.138 C 175.865 120.036,176.000 117.364,176.000 114.200 C 176.000 111.036,175.865 108.364,175.700 108.261 C 175.535 108.159,175.400 110.831,175.400 114.199 M224.267 108.267 C 223.898 108.636,223.929 119.909,224.300 120.138 C 224.465 120.239,224.600 117.550,224.600 114.161 C 224.600 110.772,224.585 108.000,224.567 108.000 C 224.548 108.000,224.413 108.120,224.267 108.267 M236.958 114.200 C 236.958 117.280,237.021 118.487,237.097 116.882 C 237.173 115.278,237.173 112.758,237.096 111.282 C 237.019 109.807,236.957 111.120,236.958 114.200 M235.639 122.224 C 235.177 123.007,234.980 123.536,235.202 123.399 C 235.636 123.131,236.934 120.800,236.650 120.800 C 236.556 120.800,236.101 121.441,235.639 122.224 M167.463 124.900 C 167.699 125.285,170.854 125.280,171.463 124.894 C 171.717 124.732,170.880 124.600,169.602 124.600 C 168.325 124.600,167.362 124.735,167.463 124.900 M228.663 124.900 C 228.899 125.285,232.054 125.280,232.663 124.894 C 232.917 124.732,232.080 124.600,230.802 124.600 C 229.525 124.600,228.562 124.735,228.663 124.900 M193.600 134.083 C 188.628 135.508,184.685 137.702,182.246 140.402 C 180.263 142.596,178.299 146.604,179.600 145.800 C 179.820 145.664,180.000 145.203,180.000 144.776 C 180.000 144.349,180.180 144.000,180.400 144.000 C 180.620 144.000,180.800 143.744,180.800 143.432 C 180.800 142.104,187.741 136.400,189.357 136.400 C 189.685 136.400,190.064 136.220,190.200 136.000 C 190.336 135.780,190.876 135.600,191.400 135.600 C 191.924 135.600,192.450 135.443,192.568 135.252 C 192.929 134.667,196.736 134.257,202.062 134.228 C 204.847 134.212,206.917 134.068,206.662 133.906 C 205.978 133.471,195.227 133.617,193.600 134.083 M208.000 134.800 C 208.788 135.309,209.715 135.309,209.400 134.800 C 209.264 134.580,208.758 134.403,208.276 134.406 C 207.564 134.411,207.512 134.485,208.000 134.800 M210.033 135.329 C 210.776 135.907,214.418 137.553,214.211 137.218 C 213.890 136.698,211.023 135.200,210.349 135.200 C 210.084 135.200,209.942 135.258,210.033 135.329 M214.800 137.918 C 214.800 138.109,215.266 138.514,215.834 138.818 C 217.015 139.450,220.000 143.040,220.000 143.829 C 220.000 144.117,220.189 144.470,220.421 144.613 C 220.652 144.756,220.553 144.181,220.202 143.336 C 219.308 141.190,214.800 136.668,214.800 137.918 M178.703 147.200 C 178.261 148.715,178.315 149.445,178.831 148.929 C 179.068 148.692,179.202 147.981,179.129 147.349 L 178.995 146.200 178.703 147.200 M221.724 150.200 C 221.726 151.520,221.801 152.012,221.890 151.293 C 221.979 150.574,221.977 149.494,221.886 148.893 C 221.795 148.292,221.722 148.880,221.724 150.200 M178.428 151.876 C 178.487 153.393,179.141 154.314,179.172 152.924 C 179.187 152.222,179.020 151.536,178.800 151.400 C 178.580 151.264,178.413 151.478,178.428 151.876 M179.200 154.616 C 179.200 154.735,179.555 155.528,179.990 156.380 C 180.831 158.029,184.000 161.900,184.000 161.278 C 184.000 160.867,182.579 158.932,181.594 158.000 C 181.245 157.670,180.645 156.725,180.261 155.900 C 179.632 154.550,179.200 154.027,179.200 154.616 M217.178 160.300 L 215.800 161.800 217.300 160.422 C 218.696 159.138,218.984 158.800,218.678 158.800 C 218.612 158.800,217.937 159.475,217.178 160.300 M192.800 165.982 C 193.130 166.205,193.745 166.391,194.167 166.394 C 195.190 166.402,194.871 166.173,193.400 165.844 C 192.524 165.648,192.362 165.685,192.800 165.982 M206.000 166.000 C 205.176 166.264,205.141 166.326,205.800 166.354 C 206.240 166.373,206.870 166.213,207.200 166.000 C 207.901 165.547,207.414 165.547,206.000 166.000 M197.105 166.683 C 197.602 166.779,198.322 166.775,198.705 166.675 C 199.087 166.575,198.680 166.496,197.800 166.501 C 196.920 166.505,196.607 166.587,197.105 166.683 M201.505 166.683 C 202.002 166.779,202.722 166.775,203.105 166.675 C 203.487 166.575,203.080 166.496,202.200 166.501 C 201.320 166.505,201.007 166.587,201.505 166.683 M304.170 185.333 C 304.058 185.627,304.020 187.382,304.086 189.233 L 304.207 192.600 304.404 188.699 C 304.599 184.825,304.563 184.310,304.170 185.333 M95.714 189.000 C 95.717 190.100,95.795 190.503,95.887 189.895 C 95.979 189.286,95.977 188.386,95.882 187.895 C 95.787 187.403,95.711 187.900,95.714 189.000 M303.724 198.200 C 303.726 199.520,303.801 200.012,303.890 199.293 C 303.979 198.574,303.977 197.494,303.886 196.893 C 303.795 196.292,303.722 196.880,303.724 198.200 M257.375 256.100 L 256.200 257.400 257.500 256.225 C 258.215 255.579,258.800 254.994,258.800 254.925 C 258.800 254.616,258.470 254.888,257.375 256.100 M145.183 258.900 C 146.841 260.666,147.200 260.984,147.200 260.683 C 147.200 260.619,146.345 259.764,145.300 258.783 L 143.400 257.000 145.183 258.900 M252.175 261.300 L 251.000 262.600 252.300 261.425 C 253.015 260.779,253.600 260.194,253.600 260.125 C 253.600 259.816,253.270 260.088,252.175 261.300 M350.000 273.185 C 349.670 273.371,348.590 273.738,347.600 274.000 C 346.610 274.263,345.487 274.640,345.105 274.839 C 344.723 275.038,343.879 275.200,343.229 275.200 C 342.579 275.200,341.936 275.380,341.800 275.600 C 341.664 275.820,341.023 276.000,340.376 276.000 C 339.729 276.000,339.200 276.157,339.200 276.348 C 339.200 276.540,338.255 276.837,337.100 277.009 C 335.945 277.181,335.315 277.397,335.700 277.490 C 336.085 277.583,336.474 278.050,336.566 278.529 C 336.657 279.008,336.922 280.390,337.156 281.600 C 339.677 294.674,337.662 303.749,330.741 310.491 C 329.674 311.531,328.800 312.476,328.800 312.591 C 328.800 312.984,334.352 312.801,334.600 312.400 C 334.736 312.180,335.289 312.000,335.829 312.000 C 336.369 312.000,337.168 311.820,337.605 311.600 C 338.042 311.380,338.758 311.020,339.195 310.800 C 339.632 310.580,340.272 310.400,340.618 310.400 C 340.964 310.400,341.136 310.220,341.000 310.000 C 340.864 309.780,341.063 309.600,341.443 309.600 C 341.823 309.600,342.004 309.471,341.847 309.314 C 341.689 309.156,342.244 308.835,343.080 308.601 C 343.916 308.366,344.600 307.927,344.600 307.625 C 344.600 307.323,344.898 307.033,345.262 306.979 C 345.954 306.877,348.800 304.079,348.800 303.500 C 348.800 303.317,349.154 302.787,349.586 302.323 C 350.019 301.859,350.291 301.347,350.191 301.185 C 350.091 301.023,350.277 300.668,350.604 300.396 C 350.932 300.124,351.200 299.600,351.200 299.231 C 351.200 298.862,351.385 298.375,351.611 298.149 C 351.837 297.923,352.062 297.185,352.111 296.508 C 352.160 295.832,352.335 295.361,352.500 295.463 C 352.665 295.564,352.800 294.917,352.800 294.024 C 352.800 293.131,352.980 292.400,353.200 292.400 C 353.449 292.400,353.600 290.075,353.600 286.224 C 353.600 282.537,353.439 279.948,353.200 279.800 C 352.980 279.664,352.800 278.843,352.800 277.976 C 352.800 276.985,352.614 276.398,352.300 276.394 C 351.967 276.390,352.000 276.258,352.400 276.000 C 352.800 275.742,352.833 275.610,352.500 275.606 C 352.225 275.603,352.021 275.465,352.047 275.300 C 352.388 273.144,351.571 272.300,350.000 273.185 M66.082 278.300 C 66.099 278.685,65.825 280.710,65.472 282.800 C 63.087 296.931,62.365 311.697,64.048 311.934 C 64.572 312.007,65.171 312.232,65.380 312.434 C 65.868 312.904,78.000 312.916,78.000 312.447 C 78.000 312.252,78.355 312.000,78.789 311.887 C 79.537 311.691,79.578 311.318,79.567 304.740 C 79.556 298.548,80.154 291.146,81.183 284.707 C 81.573 282.267,81.228 281.600,79.575 281.600 C 78.955 281.600,78.348 281.440,78.227 281.244 C 78.020 280.908,77.527 280.786,73.900 280.168 C 73.075 280.027,72.400 279.752,72.400 279.556 C 72.400 279.360,71.781 279.200,71.024 279.200 C 70.267 279.200,69.536 279.020,69.400 278.800 C 69.264 278.580,68.623 278.400,67.976 278.400 C 67.329 278.400,66.800 278.220,66.800 278.000 C 66.800 277.780,66.631 277.600,66.425 277.600 C 66.219 277.600,66.064 277.915,66.082 278.300 M330.000 278.800 C 329.176 279.064,329.141 279.126,329.800 279.154 C 330.240 279.173,330.870 279.013,331.200 278.800 C 331.901 278.347,331.414 278.347,330.000 278.800 M327.200 279.600 C 326.376 279.864,326.341 279.926,327.000 279.954 C 327.440 279.973,328.070 279.813,328.400 279.600 C 329.101 279.147,328.614 279.147,327.200 279.600 M324.400 280.400 C 323.576 280.664,323.541 280.726,324.200 280.754 C 324.640 280.773,325.270 280.613,325.600 280.400 C 326.301 279.947,325.814 279.947,324.400 280.400 M318.838 286.000 C 318.824 286.990,318.970 288.049,319.163 288.354 C 319.379 288.695,319.441 288.158,319.324 286.954 C 319.060 284.245,318.868 283.867,318.838 286.000 M204.100 285.876 C 204.485 285.976,205.115 285.976,205.500 285.876 C 205.885 285.775,205.570 285.693,204.800 285.693 C 204.030 285.693,203.715 285.775,204.100 285.876 M319.734 292.400 C 319.734 294.050,319.805 294.725,319.891 293.900 C 319.978 293.075,319.978 291.725,319.891 290.900 C 319.805 290.075,319.734 290.750,319.734 292.400 M320.565 304.200 C 320.566 308.160,320.626 309.726,320.698 307.680 C 320.771 305.634,320.771 302.394,320.698 300.480 C 320.624 298.566,320.565 300.240,320.565 304.200 " stroke="none" fill="#fab39d" fill-rule="evenodd"></path><path id="path6" d="M300.524 28.200 C 300.526 29.520,300.601 30.012,300.690 29.293 C 300.779 28.574,300.777 27.494,300.686 26.893 C 300.595 26.292,300.522 26.880,300.524 28.200 M117.941 54.501 C 118.107 54.667,150.453 54.757,189.821 54.701 L 261.400 54.600 189.520 54.400 C 149.986 54.290,117.775 54.335,117.941 54.501 M276.000 54.400 L 269.800 54.632 275.876 54.716 C 279.589 54.767,282.049 54.644,282.200 54.400 C 282.336 54.180,282.392 54.038,282.324 54.084 C 282.256 54.130,279.410 54.273,276.000 54.400 M113.067 85.867 C 112.920 86.013,112.800 94.788,112.801 105.367 L 112.802 124.600 120.101 127.468 C 124.115 129.045,128.570 130.722,130.000 131.194 C 131.430 131.666,132.960 132.199,133.400 132.378 C 135.164 133.097,148.622 137.149,150.800 137.617 C 151.570 137.783,154.720 138.561,157.800 139.346 C 162.870 140.639,171.632 142.300,177.100 143.004 C 178.254 143.153,179.306 143.447,179.436 143.658 C 179.566 143.869,180.165 143.267,180.766 142.321 C 184.367 136.654,191.345 133.600,200.691 133.600 C 205.873 133.600,206.976 133.804,211.400 135.583 C 214.940 137.006,219.052 140.684,220.366 143.600 C 220.864 144.708,221.087 144.977,220.945 144.300 C 220.783 143.529,220.876 143.196,221.257 143.187 C 227.428 143.038,248.735 138.201,261.600 134.027 C 263.470 133.420,266.129 132.591,267.510 132.183 C 269.353 131.639,269.855 131.351,269.401 131.097 C 269.061 130.907,268.892 130.575,269.025 130.359 C 269.785 129.131,270.390 116.536,270.395 101.878 L 270.400 85.955 278.762 86.078 C 283.362 86.145,287.041 86.065,286.939 85.900 C 286.709 85.529,113.437 85.496,113.067 85.867 M173.528 105.031 C 174.448 105.818,175.200 106.798,175.200 107.208 C 175.200 107.617,175.380 108.064,175.600 108.200 C 176.099 108.508,176.141 119.334,175.647 120.305 C 175.452 120.687,175.054 121.510,174.761 122.133 C 173.517 124.784,169.327 125.931,166.563 124.379 C 163.395 122.600,163.200 121.997,163.200 113.995 L 163.200 107.179 164.989 105.389 C 167.490 102.889,170.860 102.747,173.528 105.031 M234.980 105.359 C 237.111 107.490,237.350 108.637,237.129 115.676 C 236.916 122.425,235.031 125.200,230.659 125.200 C 228.444 125.200,224.800 122.678,224.800 121.145 C 224.800 120.761,224.620 120.336,224.400 120.200 C 224.163 120.054,224.000 117.604,224.000 114.200 C 224.000 110.796,224.163 108.346,224.400 108.200 C 224.620 108.064,224.800 107.695,224.800 107.381 C 224.800 103.699,231.908 102.287,234.980 105.359 M283.400 125.690 C 281.901 126.458,281.114 126.801,278.900 127.654 C 277.151 128.327,275.792 128.897,275.105 129.247 C 274.723 129.441,274.136 129.600,273.800 129.600 C 273.464 129.600,272.877 129.767,272.495 129.971 C 272.113 130.175,271.459 130.449,271.043 130.580 C 270.626 130.711,270.376 130.910,270.487 131.021 C 270.667 131.200,275.118 129.776,277.500 128.777 C 277.995 128.570,278.805 128.238,279.300 128.041 C 283.676 126.294,286.664 124.828,285.800 124.850 C 285.360 124.861,284.280 125.239,283.400 125.690 M178.955 145.100 C 178.834 145.485,178.570 146.213,178.367 146.719 C 177.855 148.000,177.908 152.534,178.451 153.881 C 180.137 158.070,182.380 160.955,185.600 163.078 C 187.617 164.408,188.974 165.005,188.597 164.395 C 188.463 164.178,188.171 164.000,187.948 164.000 C 187.726 164.000,186.732 163.441,185.739 162.758 C 179.990 158.802,177.236 152.215,178.937 146.486 C 179.278 145.339,179.471 144.400,179.366 144.400 C 179.261 144.400,179.076 144.715,178.955 145.100 M219.445 157.788 C 219.080 158.344,218.922 158.800,219.095 158.800 C 219.484 158.800,220.519 157.186,220.282 156.949 C 220.186 156.853,219.810 157.231,219.445 157.788 M217.762 160.061 C 217.343 160.535,215.650 161.821,214.000 162.920 C 212.350 164.019,211.319 164.806,211.708 164.669 C 213.429 164.062,219.673 159.200,218.732 159.200 C 218.617 159.200,218.181 159.587,217.762 160.061 M195.442 166.877 C 196.299 167.029,198.350 167.154,200.000 167.154 C 201.650 167.154,203.701 167.029,204.558 166.877 C 205.450 166.718,203.500 166.600,200.000 166.600 C 196.500 166.600,194.550 166.718,195.442 166.877 M96.101 187.000 C 96.105 187.880,96.187 188.193,96.283 187.695 C 96.379 187.198,96.375 186.478,96.275 186.095 C 96.175 185.713,96.096 186.120,96.101 187.000 M96.142 193.800 C 96.141 195.780,96.208 196.640,96.292 195.712 C 96.376 194.784,96.377 193.164,96.295 192.112 C 96.212 191.060,96.143 191.820,96.142 193.800 M303.709 194.400 C 303.709 195.390,303.787 195.795,303.882 195.300 C 303.978 194.805,303.978 193.995,303.882 193.500 C 303.787 193.005,303.709 193.410,303.709 194.400 M96.893 202.000 C 96.893 202.770,96.975 203.085,97.076 202.700 C 97.176 202.315,97.176 201.685,97.076 201.300 C 96.975 200.915,96.893 201.230,96.893 202.000 M302.893 203.200 C 302.893 203.970,302.975 204.285,303.076 203.900 C 303.176 203.515,303.176 202.885,303.076 202.500 C 302.975 202.115,302.893 202.430,302.893 203.200 M118.840 207.633 C 118.862 208.385,119.030 209.450,119.213 210.000 C 119.429 210.646,119.466 210.220,119.319 208.800 C 119.059 206.283,118.781 205.607,118.840 207.633 M280.893 207.600 C 280.893 208.370,280.975 208.685,281.076 208.300 C 281.176 207.915,281.176 207.285,281.076 206.900 C 280.975 206.515,280.893 206.830,280.893 207.600 M119.656 212.800 C 119.656 213.130,119.811 213.760,120.000 214.200 C 120.217 214.704,120.344 214.778,120.344 214.400 C 120.344 214.070,120.189 213.440,120.000 213.000 C 119.783 212.496,119.656 212.422,119.656 212.800 M269.453 239.300 L 268.733 240.600 269.558 239.600 C 270.289 238.713,270.614 238.000,270.286 238.000 C 270.224 238.000,269.849 238.585,269.453 239.300 M131.409 241.026 C 131.781 241.701,132.441 242.691,132.876 243.226 L 133.667 244.200 132.991 242.974 C 132.619 242.299,131.959 241.309,131.524 240.774 L 130.733 239.800 131.409 241.026 M141.600 254.925 C 141.600 254.994,142.185 255.579,142.900 256.225 L 144.200 257.400 143.025 256.100 C 141.930 254.888,141.600 254.616,141.600 254.925 M146.800 260.125 C 146.800 260.194,147.385 260.779,148.100 261.425 L 149.400 262.600 148.225 261.300 C 147.130 260.088,146.800 259.816,146.800 260.125 M158.200 269.407 C 158.640 269.766,159.360 270.235,159.800 270.451 L 160.600 270.844 159.800 270.193 C 159.360 269.834,158.640 269.365,158.200 269.149 L 157.400 268.756 158.200 269.407 M48.240 273.093 C 48.108 273.225,48.000 273.743,48.000 274.243 C 48.000 274.743,47.820 275.264,47.600 275.400 C 47.380 275.536,47.200 276.717,47.200 278.024 C 47.200 279.341,47.022 280.400,46.800 280.400 C 46.552 280.400,46.400 282.592,46.400 286.176 C 46.400 289.596,46.563 292.054,46.800 292.200 C 47.020 292.336,47.200 293.146,47.200 294.000 C 47.200 294.854,47.380 295.664,47.600 295.800 C 47.820 295.936,48.000 296.487,48.000 297.024 C 48.000 297.561,48.180 298.000,48.400 298.000 C 48.620 298.000,48.800 298.450,48.800 299.000 C 48.800 299.550,48.980 300.000,49.200 300.000 C 49.420 300.000,49.600 300.270,49.600 300.600 C 49.600 300.930,49.780 301.200,50.000 301.200 C 50.220 301.200,50.400 301.468,50.400 301.795 C 50.400 302.825,55.747 308.604,56.353 308.229 C 56.519 308.127,56.907 308.393,57.215 308.821 C 57.524 309.250,58.097 309.600,58.488 309.600 C 58.880 309.600,59.200 309.736,59.200 309.902 C 59.200 310.069,59.785 310.440,60.500 310.729 C 61.215 311.017,62.095 311.410,62.455 311.602 C 63.044 311.915,63.116 311.473,63.161 307.275 C 63.241 299.816,64.000 291.703,65.450 282.800 C 66.320 277.460,66.337 277.600,64.824 277.600 C 64.177 277.600,63.536 277.420,63.400 277.200 C 63.264 276.980,62.634 276.800,62.000 276.800 C 61.366 276.800,60.736 276.620,60.600 276.400 C 60.464 276.180,59.834 276.000,59.200 276.000 C 58.566 276.000,57.936 275.820,57.800 275.600 C 57.664 275.380,57.122 275.200,56.595 275.200 C 56.069 275.200,55.224 275.039,54.719 274.842 C 54.213 274.645,52.990 274.266,52.000 274.000 C 51.010 273.734,49.813 273.367,49.340 273.185 C 48.867 273.003,48.372 272.961,48.240 273.093 M333.800 277.985 C 333.360 278.166,332.190 278.535,331.200 278.804 C 330.210 279.073,328.950 279.431,328.400 279.600 C 327.390 279.910,325.136 280.521,322.200 281.279 C 319.090 282.083,318.342 282.475,318.618 283.157 C 319.472 285.268,320.405 294.879,320.650 304.100 C 320.822 310.572,320.963 312.000,321.430 312.000 C 321.744 312.000,322.000 312.180,322.000 312.400 C 322.000 312.626,323.133 312.800,324.600 312.800 C 326.067 312.800,327.200 312.974,327.200 313.200 C 327.200 313.420,327.500 313.600,327.867 313.600 C 328.233 313.600,328.424 313.491,328.291 313.357 C 328.157 313.224,329.091 312.099,330.365 310.857 C 337.691 303.719,339.728 294.942,337.156 281.600 C 336.922 280.390,336.654 278.995,336.558 278.500 C 336.374 277.546,335.332 277.352,333.800 277.985 M208.200 284.800 C 207.093 285.082,207.077 285.109,208.000 285.147 C 208.550 285.169,209.270 285.013,209.600 284.800 C 210.281 284.360,209.929 284.360,208.200 284.800 M198.700 285.893 C 199.635 285.977,201.165 285.977,202.100 285.893 C 203.035 285.809,202.270 285.740,200.400 285.740 C 198.530 285.740,197.765 285.809,198.700 285.893 " stroke="none" fill="#fbcbbb" fill-rule="evenodd"></path><path id="path7" d="M166.155 104.762 C 161.911 107.350,161.866 120.653,166.091 123.666 C 168.875 125.652,172.755 124.690,174.600 121.558 C 175.739 119.624,175.798 108.929,174.681 106.882 C 173.177 104.129,168.927 103.072,166.155 104.762 M227.322 104.900 C 223.761 107.429,223.061 118.996,226.240 122.775 C 228.981 126.032,234.505 124.996,236.215 120.903 C 237.187 118.575,237.030 109.219,235.984 107.168 C 234.397 104.057,230.094 102.931,227.322 104.900 M173.432 106.263 L 174.800 107.756 174.800 114.084 C 174.800 118.410,174.642 120.689,174.300 121.290 C 171.823 125.645,165.589 124.809,164.128 119.926 C 162.984 116.101,163.684 108.027,165.331 106.042 C 167.125 103.881,171.356 103.996,173.432 106.263 M233.946 105.497 C 237.272 107.974,237.376 119.764,234.099 122.826 C 232.240 124.564,228.474 124.443,226.615 122.585 C 225.384 121.353,225.200 120.246,225.200 114.084 L 225.200 107.756 226.511 106.325 C 228.448 104.210,231.727 103.845,233.946 105.497 M83.347 276.085 C 83.043 276.577,82.732 278.106,81.980 282.800 C 80.468 292.250,79.629 303.670,80.381 304.577 C 82.074 306.617,110.973 322.800,112.923 322.800 C 113.062 322.800,114.127 323.234,115.288 323.764 C 121.420 326.564,135.015 331.518,135.430 331.103 C 135.540 330.994,134.048 330.401,132.115 329.786 C 130.182 329.171,128.429 328.518,128.220 328.334 C 128.011 328.150,127.514 328.000,127.115 328.000 C 126.716 328.000,126.077 327.841,125.695 327.647 C 125.008 327.297,123.649 326.727,121.900 326.054 C 120.132 325.373,118.973 324.889,117.100 324.051 C 116.055 323.583,114.435 322.861,113.500 322.447 C 110.502 321.119,98.681 315.264,96.200 313.878 C 92.433 311.774,91.814 311.414,91.600 311.200 C 91.204 310.804,88.985 309.546,88.300 309.329 C 87.915 309.207,87.600 308.948,87.600 308.753 C 87.600 308.559,87.375 308.393,87.100 308.384 C 86.825 308.375,85.250 307.426,83.600 306.275 L 80.600 304.182 80.709 299.791 C 80.809 295.711,81.071 293.027,82.013 286.400 C 82.626 282.090,83.587 276.679,83.773 276.494 C 83.918 276.349,86.529 278.107,87.200 278.803 C 87.717 279.338,94.581 284.129,97.800 286.201 C 101.600 288.648,103.193 289.595,105.800 290.962 C 106.680 291.423,107.490 291.890,107.600 292.000 C 109.036 293.436,132.320 304.227,133.288 303.904 C 133.475 303.842,132.407 303.277,130.914 302.650 C 129.421 302.022,127.437 301.169,126.504 300.754 C 125.572 300.339,124.704 300.000,124.577 300.000 C 123.972 300.000,110.505 293.159,105.848 290.486 C 98.334 286.173,84.932 277.044,84.467 275.922 C 84.270 275.446,83.690 275.531,83.347 276.085 M314.975 276.485 L 314.200 277.400 315.031 276.700 C 316.148 275.760,316.705 275.819,316.938 276.900 C 317.109 277.698,317.124 277.687,317.066 276.804 C 316.979 275.496,315.948 275.338,314.975 276.485 M317.379 280.200 C 317.517 281.080,317.803 282.790,318.013 284.000 C 318.224 285.210,318.472 286.740,318.566 287.400 C 318.659 288.060,318.663 287.520,318.575 286.200 C 318.341 282.710,317.809 279.275,317.445 278.914 C 317.271 278.741,317.242 279.320,317.379 280.200 M300.000 287.036 C 295.277 290.398,279.933 298.388,272.800 301.200 C 271.625 301.663,269.930 302.369,269.032 302.768 C 268.135 303.168,265.706 304.093,263.635 304.825 C 261.563 305.557,260.096 306.232,260.374 306.325 C 260.652 306.417,261.266 306.311,261.739 306.089 C 263.240 305.386,266.893 304.000,267.248 304.000 C 268.897 304.000,292.496 292.708,294.000 291.199 C 294.110 291.089,294.740 290.734,295.400 290.410 C 297.036 289.608,301.093 286.897,301.399 286.402 C 301.750 285.834,301.581 285.910,300.000 287.036 M319.057 291.861 C 319.168 293.588,319.425 296.318,319.629 297.929 C 320.364 303.732,320.272 304.167,318.000 305.639 C 316.900 306.352,316.000 307.001,316.000 307.081 C 316.000 307.332,317.735 306.324,319.150 305.252 L 320.500 304.229 320.246 300.614 C 319.708 292.939,319.341 289.208,319.103 288.970 C 318.967 288.834,318.946 290.135,319.057 291.861 M134.161 304.337 C 134.318 304.592,134.761 304.800,135.144 304.800 C 135.527 304.800,136.011 304.948,136.220 305.128 C 136.429 305.308,137.950 305.867,139.600 306.369 C 141.250 306.871,142.913 307.444,143.295 307.641 C 143.677 307.838,144.341 308.000,144.771 308.000 C 145.201 308.000,145.664 308.180,145.800 308.400 C 145.936 308.620,146.566 308.800,147.200 308.800 C 147.834 308.800,148.464 308.980,148.600 309.200 C 148.736 309.420,149.366 309.600,150.000 309.600 C 150.634 309.600,151.252 309.760,151.373 309.956 C 151.494 310.151,152.179 310.412,152.896 310.534 C 154.238 310.762,156.449 311.239,159.600 311.979 C 165.232 313.302,171.841 314.356,180.400 315.295 C 186.718 315.988,213.868 315.975,220.000 315.275 C 231.586 313.953,237.836 312.833,247.200 310.400 C 247.970 310.200,249.140 309.924,249.800 309.788 C 250.460 309.651,251.360 309.394,251.800 309.215 C 252.240 309.037,253.410 308.673,254.400 308.407 C 255.390 308.140,256.513 307.760,256.895 307.561 C 257.277 307.362,257.941 307.200,258.371 307.200 C 258.801 307.200,259.264 307.020,259.400 306.800 C 259.744 306.243,259.183 306.299,257.150 307.025 C 255.597 307.579,254.430 307.924,249.800 309.200 C 246.758 310.038,244.005 310.722,241.800 311.186 C 240.480 311.464,238.860 311.831,238.200 312.002 C 237.540 312.173,235.650 312.527,234.000 312.790 C 232.350 313.053,230.190 313.421,229.200 313.609 C 227.476 313.935,223.767 314.329,214.200 315.201 C 196.863 316.782,173.846 314.899,154.800 310.343 C 151.481 309.549,141.029 306.412,138.200 305.361 C 134.282 303.904,133.822 303.788,134.161 304.337 M312.593 309.056 C 310.552 310.409,309.832 311.123,311.426 310.214 C 312.830 309.414,314.701 308.022,314.393 308.009 C 314.279 308.004,313.469 308.475,312.593 309.056 M303.000 314.523 C 302.340 314.785,298.380 316.688,294.200 318.750 C 286.921 322.342,284.063 323.689,282.100 324.451 C 278.139 325.988,276.314 326.847,276.536 327.070 C 276.707 327.241,279.764 326.029,286.000 323.318 C 288.692 322.148,304.400 314.338,304.400 314.170 C 304.400 313.959,304.446 313.947,303.000 314.523 M274.180 327.528 C 273.971 327.708,272.450 328.281,270.800 328.800 C 269.150 329.319,267.629 329.892,267.420 330.072 C 267.211 330.252,266.637 330.400,266.144 330.400 C 265.651 330.400,265.136 330.580,265.000 330.800 C 264.607 331.435,265.187 331.296,269.828 329.642 C 275.910 327.476,276.411 327.257,275.380 327.225 C 274.929 327.211,274.389 327.348,274.180 327.528 M136.000 331.367 C 136.000 331.717,144.794 334.220,151.000 335.636 C 156.982 337.001,158.108 337.237,160.400 337.601 C 161.610 337.793,164.220 338.216,166.200 338.542 C 170.455 339.241,175.055 339.826,180.714 340.390 C 185.995 340.916,214.066 340.924,219.132 340.400 C 234.280 338.836,240.429 337.815,251.600 335.008 C 260.618 332.741,264.735 331.522,264.101 331.305 C 263.827 331.211,262.477 331.502,261.101 331.952 C 255.283 333.855,240.476 337.216,234.200 338.057 C 232.660 338.264,230.140 338.602,228.600 338.809 C 214.748 340.668,186.654 340.759,172.600 338.990 C 161.626 337.609,145.595 334.218,138.800 331.841 C 137.016 331.217,136.000 331.045,136.000 331.367 M119.300 356.294 C 120.345 356.376,122.055 356.376,123.100 356.294 C 124.145 356.212,123.290 356.144,121.200 356.144 C 119.110 356.144,118.255 356.212,119.300 356.294 M276.713 356.295 C 277.876 356.376,279.676 356.376,280.713 356.293 C 281.751 356.211,280.800 356.145,278.600 356.146 C 276.400 356.147,275.551 356.214,276.713 356.295 M110.249 357.433 C 108.296 357.968,105.416 359.022,103.849 359.773 C 102.282 360.525,100.730 361.230,100.400 361.339 C 99.988 361.475,100.050 361.546,100.600 361.567 C 101.040 361.584,102.570 361.010,104.000 360.292 C 105.430 359.574,107.410 358.752,108.400 358.466 C 109.390 358.180,110.753 357.778,111.428 357.573 C 112.104 357.368,112.948 357.200,113.305 357.200 C 113.661 357.200,114.064 357.020,114.200 356.800 C 114.525 356.274,114.399 356.294,110.249 357.433 M128.600 356.790 C 129.364 357.128,131.914 357.357,131.567 357.056 C 131.475 356.976,130.590 356.804,129.600 356.673 C 128.398 356.514,128.066 356.553,128.600 356.790 M270.600 356.678 C 257.551 359.691,247.540 368.338,244.061 379.600 C 243.823 380.370,243.361 381.860,243.035 382.911 C 242.708 383.962,242.580 384.736,242.750 384.631 C 242.920 384.526,243.291 383.666,243.576 382.720 C 244.564 379.432,244.882 378.585,246.103 376.000 C 248.850 370.178,257.264 361.200,259.972 361.200 C 260.207 361.200,260.400 361.020,260.400 360.800 C 260.400 360.580,260.642 360.400,260.939 360.400 C 261.235 360.400,262.090 360.088,262.839 359.707 C 264.791 358.712,266.863 358.013,267.876 358.006 C 268.358 358.003,268.864 357.820,269.000 357.600 C 269.136 357.380,269.732 357.197,270.324 357.194 C 270.916 357.191,271.670 357.013,272.000 356.800 C 272.679 356.362,272.164 356.316,270.600 356.678 M286.200 356.790 C 286.964 357.128,289.514 357.357,289.167 357.056 C 289.075 356.976,288.190 356.804,287.200 356.673 C 285.998 356.514,285.666 356.553,286.200 356.790 M132.000 357.336 C 132.000 357.440,133.035 357.849,134.300 358.243 C 140.375 360.139,146.540 364.553,150.575 369.896 C 151.442 371.044,152.225 371.908,152.316 371.818 C 152.476 371.657,150.816 369.418,148.800 367.077 C 147.725 365.828,143.160 362.086,141.818 361.353 C 138.619 359.607,136.404 358.528,135.200 358.131 C 132.787 357.335,132.000 357.140,132.000 357.336 M290.000 357.582 C 290.330 357.805,290.945 357.991,291.367 357.994 C 292.390 358.002,292.071 357.773,290.600 357.444 C 289.724 357.248,289.562 357.285,290.000 357.582 M294.000 358.924 C 295.328 359.613,296.400 360.012,296.400 359.817 C 296.400 359.576,293.937 358.400,293.439 358.402 C 293.197 358.404,293.450 358.638,294.000 358.924 M154.291 375.900 C 154.786 377.202,155.595 378.603,155.598 378.161 C 155.600 377.663,154.424 375.200,154.183 375.200 C 154.096 375.200,154.145 375.515,154.291 375.900 M156.658 382.400 C 156.975 384.125,157.202 384.451,157.194 383.167 C 157.191 382.635,157.011 381.930,156.794 381.600 C 156.518 381.178,156.477 381.415,156.658 382.400 " stroke="none" fill="#7c6c6c" fill-rule="evenodd"></path><path id="path8" d="M120.800 53.875 C 122.450 53.938,156.920 54.037,197.400 54.095 C 237.880 54.153,268.390 54.088,265.200 53.950 C 262.010 53.813,227.540 53.714,188.600 53.731 C 149.660 53.747,119.150 53.812,120.800 53.875 M95.134 189.883 C 95.207 192.649,95.411 195.293,95.586 195.757 C 95.761 196.220,95.813 194.170,95.701 191.200 C 95.590 188.230,95.387 185.587,95.249 185.326 C 95.112 185.065,95.060 187.116,95.134 189.883 M304.550 189.800 C 304.551 192.220,304.616 193.158,304.696 191.885 C 304.776 190.612,304.775 188.632,304.694 187.485 C 304.614 186.338,304.549 187.380,304.550 189.800 M303.443 202.633 C 303.309 202.981,303.200 203.965,303.200 204.821 C 303.200 205.676,302.831 207.032,302.380 207.835 C 301.930 208.637,301.628 209.361,301.709 209.443 C 302.132 209.866,303.528 206.298,303.720 204.300 C 303.947 201.951,303.874 201.510,303.443 202.633 M96.806 205.433 C 96.809 205.855,96.995 206.470,97.218 206.800 C 97.515 207.238,97.552 207.076,97.356 206.200 C 97.027 204.729,96.798 204.410,96.806 205.433 M117.822 205.965 C 117.674 206.204,117.743 206.400,117.976 206.400 C 118.222 206.400,118.412 207.366,118.428 208.700 C 118.444 209.965,118.605 211.360,118.788 211.800 C 118.980 212.264,119.031 211.256,118.909 209.400 C 118.702 206.242,118.346 205.116,117.822 205.965 M281.293 207.200 C 281.293 207.970,281.375 208.285,281.476 207.900 C 281.576 207.515,281.576 206.885,281.476 206.500 C 281.375 206.115,281.293 206.430,281.293 207.200 M297.025 210.840 C 297.147 211.038,297.676 211.200,298.200 211.200 C 298.724 211.200,299.253 211.038,299.375 210.840 C 299.498 210.642,298.969 210.480,298.200 210.480 C 297.431 210.480,296.902 210.642,297.025 210.840 M119.200 213.910 C 119.200 214.593,119.377 215.262,119.594 215.396 C 119.840 215.548,119.894 215.145,119.737 214.320 C 119.400 212.551,119.200 212.399,119.200 213.910 M279.808 215.800 C 279.247 218.501,279.197 218.987,279.540 218.400 C 279.926 217.741,280.450 214.800,280.182 214.800 C 280.090 214.800,279.922 215.250,279.808 215.800 M120.028 217.076 C 120.013 217.558,120.180 218.064,120.400 218.200 C 120.873 218.492,120.873 218.101,120.400 217.000 C 120.069 216.229,120.055 216.231,120.028 217.076 M270.338 238.700 C 268.677 241.556,268.464 242.085,269.491 240.800 C 270.346 239.729,272.129 236.400,271.846 236.400 C 271.753 236.400,271.074 237.435,270.338 238.700 M130.808 241.214 C 131.357 242.241,133.006 244.751,133.821 245.800 C 134.163 246.240,134.928 247.365,135.521 248.299 C 136.115 249.234,136.735 249.999,136.899 249.999 C 137.063 250.000,136.339 248.785,135.289 247.300 C 134.239 245.815,132.780 243.655,132.048 242.500 C 130.737 240.433,129.956 239.623,130.808 241.214 M266.504 245.000 C 265.378 246.650,264.579 247.997,264.728 247.993 C 264.878 247.989,265.554 247.134,266.231 246.093 C 266.908 245.052,267.784 243.705,268.177 243.100 C 269.746 240.686,268.421 242.190,266.504 245.000 M263.068 249.819 C 262.462 250.578,262.109 251.190,262.283 251.178 C 262.690 251.149,264.546 248.813,264.332 248.599 C 264.243 248.510,263.674 249.059,263.068 249.819 M139.215 252.998 C 140.134 254.253,140.822 254.911,141.015 254.718 C 141.112 254.621,140.615 254.015,139.911 253.371 C 139.207 252.727,138.894 252.559,139.215 252.998 M142.800 256.910 C 142.800 256.971,144.195 258.366,145.900 260.010 L 149.000 263.000 146.010 259.900 C 143.233 257.021,142.800 256.617,142.800 256.910 M251.774 262.037 C 250.908 262.929,248.400 264.994,246.200 266.625 C 244.000 268.257,242.020 269.733,241.800 269.907 C 241.580 270.081,240.531 270.728,239.469 271.347 C 238.406 271.965,237.621 272.554,237.722 272.656 C 237.978 272.912,246.387 267.353,247.200 266.390 C 247.310 266.260,247.781 265.894,248.246 265.577 C 249.618 264.641,253.706 260.772,253.519 260.586 C 253.425 260.492,252.640 261.145,251.774 262.037 M149.200 263.090 C 149.200 263.266,149.661 263.756,150.224 264.179 C 150.787 264.602,151.732 265.374,152.324 265.896 C 153.423 266.865,155.341 268.042,154.600 267.294 C 153.421 266.103,149.200 262.817,149.200 263.090 M155.207 267.913 C 155.214 268.174,157.025 269.440,160.200 271.404 C 162.189 272.635,160.782 271.458,157.900 269.480 C 156.415 268.461,155.203 267.756,155.207 267.913 M48.833 272.544 C 48.925 272.623,49.540 272.808,50.200 272.956 C 51.076 273.152,51.238 273.115,50.800 272.818 C 50.260 272.453,48.432 272.198,48.833 272.544 M52.600 273.600 C 53.701 274.073,54.092 274.073,53.800 273.600 C 53.664 273.380,53.158 273.213,52.676 273.228 C 51.831 273.255,51.829 273.269,52.600 273.600 M234.400 274.433 L 233.400 275.248 234.700 274.614 C 235.415 274.265,236.000 273.894,236.000 273.790 C 236.000 273.392,235.363 273.648,234.400 274.433 M54.433 274.144 C 54.905 274.550,56.843 274.793,56.610 274.416 C 56.468 274.187,55.883 274.000,55.310 274.000 C 54.736 274.000,54.342 274.065,54.433 274.144 M58.200 275.200 C 59.301 275.673,59.692 275.673,59.400 275.200 C 59.264 274.980,58.758 274.813,58.276 274.828 C 57.431 274.855,57.429 274.869,58.200 275.200 M341.445 275.128 C 341.333 275.308,341.773 275.377,342.421 275.282 C 343.070 275.187,343.600 275.040,343.600 274.955 C 343.600 274.650,341.643 274.807,341.445 275.128 M61.000 276.000 C 62.101 276.473,62.492 276.473,62.200 276.000 C 62.064 275.780,61.558 275.613,61.076 275.628 C 60.231 275.655,60.229 275.669,61.000 276.000 M337.000 276.291 C 336.340 276.385,335.626 276.631,335.413 276.838 C 334.960 277.278,337.468 276.874,338.400 276.357 C 339.023 276.011,338.977 276.009,337.000 276.291 M63.800 276.800 C 64.901 277.273,65.292 277.273,65.000 276.800 C 64.864 276.580,64.358 276.413,63.876 276.428 C 63.031 276.455,63.029 276.469,63.800 276.800 M332.200 277.600 C 331.908 278.073,332.299 278.073,333.400 277.600 C 334.171 277.269,334.169 277.255,333.324 277.228 C 332.842 277.213,332.336 277.380,332.200 277.600 M68.000 278.155 C 68.000 278.240,68.530 278.387,69.179 278.482 C 69.827 278.577,70.267 278.508,70.155 278.328 C 69.957 278.007,68.000 277.850,68.000 278.155 M329.400 278.400 C 329.108 278.873,329.499 278.873,330.600 278.400 C 331.371 278.069,331.369 278.055,330.524 278.028 C 330.042 278.013,329.536 278.180,329.400 278.400 M70.800 278.955 C 70.800 279.040,71.330 279.187,71.979 279.282 C 72.627 279.377,73.067 279.308,72.955 279.128 C 72.757 278.807,70.800 278.650,70.800 278.955 M326.600 279.200 C 326.096 279.417,326.022 279.544,326.400 279.544 C 326.730 279.544,327.360 279.389,327.800 279.200 C 328.304 278.983,328.378 278.856,328.000 278.856 C 327.670 278.856,327.040 279.011,326.600 279.200 M74.033 279.744 C 74.125 279.823,74.740 280.008,75.400 280.156 C 76.276 280.352,76.438 280.315,76.000 280.018 C 75.460 279.653,73.632 279.398,74.033 279.744 M323.600 280.000 C 323.067 280.345,323.067 280.388,323.600 280.388 C 323.930 280.388,324.470 280.213,324.800 280.000 C 325.333 279.655,325.333 279.612,324.800 279.612 C 324.470 279.612,323.930 279.787,323.600 280.000 M76.833 280.544 C 76.925 280.623,77.540 280.808,78.200 280.956 C 79.076 281.152,79.238 281.115,78.800 280.818 C 78.260 280.453,76.432 280.198,76.833 280.544 M320.800 280.800 C 320.267 281.145,320.267 281.188,320.800 281.188 C 321.130 281.188,321.670 281.013,322.000 280.800 C 322.533 280.455,322.533 280.412,322.000 280.412 C 321.670 280.412,321.130 280.587,320.800 280.800 M178.800 280.989 C 178.800 281.306,181.700 282.433,181.928 282.205 C 182.041 282.092,182.035 282.000,181.916 282.000 C 181.796 282.000,181.046 281.728,180.249 281.395 C 179.452 281.062,178.800 280.879,178.800 280.989 M182.600 282.800 C 182.736 283.020,183.242 283.187,183.724 283.172 C 184.569 283.145,184.571 283.131,183.800 282.800 C 182.699 282.327,182.308 282.327,182.600 282.800 M81.378 284.178 C 81.227 284.981,81.194 285.727,81.304 285.837 C 81.414 285.947,81.627 285.381,81.778 284.578 C 81.928 283.775,81.962 283.028,81.852 282.918 C 81.742 282.808,81.528 283.375,81.378 284.178 M184.941 283.474 C 185.326 283.859,188.077 284.790,188.800 284.780 C 189.130 284.775,188.417 284.418,187.215 283.986 C 184.835 283.130,184.527 283.060,184.941 283.474 M214.400 283.461 C 214.070 283.570,213.440 283.805,213.000 283.984 C 212.209 284.305,210.750 284.711,207.154 285.612 C 206.013 285.897,202.927 286.022,199.075 285.937 C 195.596 285.860,193.230 285.944,193.721 286.125 C 195.528 286.794,208.445 286.100,210.600 285.218 C 211.040 285.038,212.210 284.659,213.200 284.376 C 214.190 284.093,215.171 283.712,215.380 283.530 C 215.800 283.165,215.386 283.136,214.400 283.461 M189.804 285.206 C 189.938 285.423,190.607 285.600,191.290 285.600 C 192.801 285.600,192.649 285.400,190.880 285.063 C 190.055 284.906,189.652 284.960,189.804 285.206 M80.656 289.284 C 80.521 289.788,80.430 290.830,80.452 291.600 C 80.486 292.734,80.562 292.589,80.852 290.839 C 81.220 288.625,81.096 287.643,80.656 289.284 M79.807 297.300 C 79.528 299.257,79.699 312.025,80.000 311.729 C 80.181 311.552,80.304 295.600,80.125 295.600 C 80.083 295.600,79.940 296.365,79.807 297.300 M320.142 307.800 C 320.141 309.780,320.208 310.640,320.292 309.712 C 320.376 308.784,320.377 307.164,320.295 306.112 C 320.212 305.060,320.143 305.820,320.142 307.800 " stroke="none" fill="#ec7c7c" fill-rule="evenodd"></path></g></svg>